<svg xmlns="http://www.w3.org/2000/svg" xmlns:xlink="http://www.w3.org/1999/xlink" width="500" zoomAndPan="magnify" viewBox="0 0 375 374.999991" height="500" preserveAspectRatio="xMidYMid meet" version="1.0"><path fill="#ff0000" d="M 323.046875 19.34375 C 319.542969 21.445312 253.679688 42.492188 229.859375 45.996094 C 229.863281 46.015625 229.910156 46.152344 229.914062 46.171875 C 196.625 50.582031 164.058594 7.777344 134.523438 24.269531 C 134.523438 24.269531 134.640625 24.5 134.640625 24.5 C 97.28125 30.800781 61.238281 39.785156 24.539062 51.5625 C 24.539062 51.5625 70.785156 179.179688 74.292969 190.394531 C 94.875 176.664062 170.433594 159.753906 183.464844 157.078125 C 183.484375 157.125 183.566406 157.375 183.582031 157.425781 C 220.710938 163.613281 229.09375 187.175781 275.730469 176.140625 C 275.777344 176.203125 276.035156 177.035156 276.078125 177.066406 C 287.289062 174.964844 368.570312 149.71875 368.570312 149.71875 C 368.570312 149.71875 326.550781 17.242188 323.046875 19.347656 Z M 323.046875 19.34375 " fill-opacity="1" fill-rule="evenodd"/><path fill="#404040" d="M 17.539062 41.070312 L 25.246094 50.183594 L 133.855469 348.816406 L 130.351562 357.929688 L 123.34375 353.722656 L 14.035156 50.878906 L 12.632812 45.273438 L 17.539062 41.066406 Z M 17.539062 41.070312 " fill-opacity="1" fill-rule="evenodd"/><path fill="#ffffff" d="M 269.09375 37.5625 C 269.09375 37.5625 320.246094 17.234375 323.75 19.335938 C 327.253906 21.4375 362.289062 123.789062 364.390625 134.304688 C 366.492188 144.816406 305.53125 45.976562 269.09375 37.5625 Z M 269.09375 37.5625 " fill-opacity="0.125" fill-rule="evenodd"/><path fill="#ffffff" d="M 53.972656 43.171875 C 53.972656 43.171875 131.753906 17.933594 136.65625 24.242188 C 141.5625 30.554688 182.902344 143.417969 177.296875 136.40625 C 171.691406 129.398438 72.890625 47.378906 53.972656 43.171875 Z M 53.972656 43.171875 " fill-opacity="0.125" fill-rule="evenodd"/><path fill="#000000" d="M 325.828125 15.636719 C 289.777344 28.054688 253.730469 43.042969 215.207031 45.179688 C 190.292969 41.519531 172.921875 11.960938 145.8125 19.292969 C 105.097656 26.296875 65.351562 37.777344 25.523438 48.546875 C 16.820312 26.316406 4.671875 41.667969 15.40625 63.15625 C 51.203125 161.578125 87.992188 260.050781 123.925781 358.4375 C 149.667969 375.210938 128.164062 327.34375 124.0625 315.46875 C 108.894531 273.78125 93.585938 232.148438 78.75 190.339844 C 115.917969 176.496094 154.167969 161.839844 194.105469 160.132812 C 216.671875 166.027344 234.683594 191.5 261.066406 181.445312 C 298.304688 176.34375 333.34375 162.070312 369.296875 151.953125 C 370.617188 132.046875 355.691406 109.507812 350.941406 88.574219 C 342.585938 64.257812 334.234375 39.941406 325.828125 15.640625 Z M 322.988281 21.605469 C 337.429688 63.59375 351.871094 105.582031 366.3125 147.574219 C 325.457031 160.070312 284.792969 176.679688 241.625 178.296875 C 217.8125 172.902344 201.269531 148.886719 172.542969 157.386719 C 139.835938 163.324219 108.128906 173.789062 77.246094 185.929688 C 60.753906 141.519531 44.1875 97.132812 27.550781 52.777344 C 70.191406 41.585938 112.515625 28.269531 156.414062 22.839844 C 182.351562 26.234375 200.253906 56.65625 228.460938 49.054688 C 260.980469 43.867188 292.121094 32.707031 322.988281 21.605469 Z M 41.445312 103.597656 C 68.992188 176.441406 95.417969 249.777344 121.808594 322.984375 C 127.902344 330.09375 137.644531 367.480469 123.890625 348.882812 C 87.984375 247.886719 50.953125 145.828125 14.527344 44.960938 C 21.921875 36.867188 32.109375 84.152344 41.445312 103.597656 Z M 41.445312 103.597656 " fill-opacity="1" fill-rule="evenodd"/><path fill="#000000" d="M 182.902344 34.058594 C 182.902344 34.058594 219.339844 167.953125 226.347656 173.558594 C 236.855469 184.777344 285.90625 173.558594 295.015625 172.15625 C 245.964844 142.714844 202.519531 71.914062 192.011719 38.261719 C 187.105469 34.058594 189.207031 38.964844 182.902344 34.058594 Z M 182.902344 34.058594 " fill-opacity="0.094" fill-rule="evenodd"/></svg>