<svg xmlns="http://www.w3.org/2000/svg" xmlns:xlink="http://www.w3.org/1999/xlink" width="500" zoomAndPan="magnify" viewBox="0 0 375 374.999991" height="500" preserveAspectRatio="xMidYMid meet" version="1.0"><defs><clipPath id="d1410a9975"><path d="M 47.839844 203 L 65 203 L 65 252 L 47.839844 252 Z M 47.839844 203 " clip-rule="nonzero"/></clipPath><clipPath id="7ee21a7aa2"><path d="M 180 257 L 302 257 L 302 324.785156 L 180 324.785156 Z M 180 257 " clip-rule="nonzero"/></clipPath><clipPath id="fc23309c82"><path d="M 137 50.285156 L 295 50.285156 L 295 108 L 137 108 Z M 137 50.285156 " clip-rule="nonzero"/></clipPath><clipPath id="b3d21fd938"><path d="M 308.109375 124.148438 L 326.839844 124.148438 L 326.839844 157.296875 L 308.109375 157.296875 Z M 308.109375 124.148438 " clip-rule="nonzero"/></clipPath><clipPath id="ac7a63eb75"><path d="M 72.53125 255.867188 L 216.097656 255.867188 L 216.097656 324.707031 L 72.53125 324.707031 Z M 72.53125 255.867188 " clip-rule="nonzero"/></clipPath></defs><path fill="#093c5f" d="M 61.242188 132.660156 C 63.34375 127.960938 65.714844 123.390625 68.347656 118.953125 C 68.445312 118.792969 68.507812 118.617188 68.535156 118.429688 C 68.558594 118.242188 68.550781 118.058594 68.503906 117.875 C 68.457031 117.691406 68.378906 117.527344 68.265625 117.375 C 68.152344 117.222656 68.011719 117.097656 67.851562 117.003906 C 67.6875 116.90625 67.515625 116.84375 67.328125 116.816406 C 67.140625 116.792969 66.957031 116.800781 66.773438 116.847656 C 66.589844 116.894531 66.421875 116.972656 66.269531 117.085938 C 66.121094 117.199219 65.996094 117.339844 65.898438 117.5 C 63.210938 122.03125 60.789062 126.695312 58.644531 131.5 C 58.566406 131.671875 58.523438 131.851562 58.519531 132.039062 C 58.515625 132.230469 58.546875 132.410156 58.613281 132.589844 C 58.679688 132.765625 58.777344 132.921875 58.910156 133.058594 C 59.039062 133.195312 59.1875 133.300781 59.363281 133.378906 C 59.535156 133.457031 59.714844 133.496094 59.902344 133.503906 C 60.09375 133.507812 60.273438 133.476562 60.449219 133.410156 C 60.628906 133.34375 60.785156 133.242188 60.921875 133.113281 C 61.058594 132.984375 61.164062 132.832031 61.242188 132.660156 Z M 76.980469 106.152344 C 80.101562 102.054688 83.449219 98.144531 87.023438 94.425781 C 87.152344 94.289062 87.253906 94.132812 87.320312 93.957031 C 87.390625 93.78125 87.421875 93.597656 87.417969 93.410156 C 87.414062 93.21875 87.375 93.039062 87.300781 92.867188 C 87.222656 92.695312 87.117188 92.542969 86.980469 92.410156 C 86.84375 92.28125 86.691406 92.179688 86.511719 92.113281 C 86.335938 92.042969 86.15625 92.011719 85.964844 92.015625 C 85.777344 92.019531 85.597656 92.058594 85.425781 92.132812 C 85.25 92.210938 85.097656 92.316406 84.96875 92.453125 C 81.320312 96.25 77.902344 100.242188 74.714844 104.429688 C 74.601562 104.578125 74.519531 104.746094 74.472656 104.929688 C 74.425781 105.109375 74.414062 105.296875 74.4375 105.484375 C 74.464844 105.667969 74.523438 105.84375 74.617188 106.007812 C 74.714844 106.171875 74.835938 106.308594 74.984375 106.425781 C 75.136719 106.539062 75.304688 106.621094 75.484375 106.667969 C 75.667969 106.714844 75.851562 106.726562 76.039062 106.703125 C 76.226562 106.675781 76.402344 106.617188 76.566406 106.523438 C 76.730469 106.425781 76.867188 106.304688 76.980469 106.152344 Z M 76.980469 106.152344 " fill-opacity="1" fill-rule="nonzero"/><g clip-path="url(#d1410a9975)"><path fill="#093c5f" d="M 64.609375 249.191406 C 62.234375 244.613281 60.132812 239.914062 58.304688 235.101562 C 58.238281 234.921875 58.140625 234.765625 58.011719 234.628906 C 57.878906 234.492188 57.730469 234.382812 57.558594 234.308594 C 57.386719 234.230469 57.203125 234.1875 57.015625 234.183594 C 56.828125 234.175781 56.644531 234.207031 56.46875 234.273438 C 56.292969 234.339844 56.136719 234.441406 55.996094 234.570312 C 55.859375 234.699219 55.753906 234.847656 55.675781 235.023438 C 55.597656 235.195312 55.554688 235.375 55.550781 235.5625 C 55.546875 235.75 55.574219 235.933594 55.644531 236.109375 C 57.511719 241.03125 59.65625 245.828125 62.082031 250.503906 C 62.171875 250.671875 62.285156 250.816406 62.429688 250.9375 C 62.574219 251.058594 62.738281 251.148438 62.917969 251.203125 C 63.097656 251.261719 63.28125 251.28125 63.46875 251.265625 C 63.65625 251.25 63.835938 251.199219 64.003906 251.113281 C 64.171875 251.023438 64.316406 250.910156 64.4375 250.765625 C 64.558594 250.621094 64.648438 250.457031 64.703125 250.277344 C 64.761719 250.097656 64.78125 249.914062 64.765625 249.726562 C 64.75 249.539062 64.699219 249.359375 64.609375 249.191406 Z M 53.671875 220.375 C 52.410156 215.382812 51.445312 210.328125 50.765625 205.210938 C 50.742188 205.023438 50.683594 204.847656 50.589844 204.683594 C 50.492188 204.519531 50.371094 204.382812 50.222656 204.265625 C 50.070312 204.152344 49.90625 204.070312 49.722656 204.023438 C 49.539062 203.972656 49.355469 203.960938 49.167969 203.984375 C 48.980469 204.011719 48.804688 204.070312 48.644531 204.164062 C 48.480469 204.257812 48.339844 204.382812 48.226562 204.53125 C 48.109375 204.679688 48.027344 204.847656 47.980469 205.03125 C 47.929688 205.210938 47.917969 205.398438 47.945312 205.582031 C 48.636719 210.808594 49.625 215.972656 50.910156 221.070312 C 50.953125 221.253906 51.035156 221.421875 51.148438 221.574219 C 51.257812 221.722656 51.398438 221.847656 51.558594 221.945312 C 51.722656 222.042969 51.894531 222.105469 52.082031 222.132812 C 52.269531 222.160156 52.453125 222.148438 52.636719 222.101562 C 52.820312 222.058594 52.988281 221.976562 53.140625 221.863281 C 53.289062 221.753906 53.414062 221.613281 53.511719 221.453125 C 53.609375 221.289062 53.671875 221.117188 53.699219 220.929688 C 53.726562 220.742188 53.714844 220.558594 53.671875 220.375 Z M 53.671875 220.375 " fill-opacity="1" fill-rule="nonzero"/></g><g clip-path="url(#7ee21a7aa2)"><path fill="#093c5f" d="M 298.367188 257.726562 C 295.664062 262.113281 292.722656 266.332031 289.53125 270.390625 C 289.414062 270.539062 289.332031 270.703125 289.28125 270.882812 C 289.230469 271.066406 289.214844 271.25 289.238281 271.4375 C 289.257812 271.625 289.316406 271.800781 289.410156 271.964844 C 289.5 272.132812 289.621094 272.273438 289.769531 272.386719 C 289.917969 272.503906 290.085938 272.589844 290.265625 272.640625 C 290.449219 272.691406 290.632812 272.707031 290.820312 272.683594 C 291.007812 272.660156 291.183594 272.601562 291.347656 272.511719 C 291.511719 272.417969 291.652344 272.296875 291.769531 272.148438 C 295.027344 268.007812 298.035156 263.699219 300.789062 259.21875 C 300.890625 259.058594 300.953125 258.882812 300.984375 258.695312 C 301.015625 258.511719 301.007812 258.324219 300.964844 258.140625 C 300.917969 257.957031 300.84375 257.789062 300.730469 257.636719 C 300.621094 257.484375 300.484375 257.359375 300.324219 257.257812 C 300.164062 257.160156 299.988281 257.09375 299.804688 257.066406 C 299.617188 257.035156 299.433594 257.042969 299.25 257.085938 C 299.066406 257.128906 298.894531 257.207031 298.742188 257.316406 C 298.589844 257.429688 298.464844 257.566406 298.367188 257.726562 Z M 279.308594 281.960938 C 275.679688 285.625 271.851562 289.066406 267.832031 292.289062 C 267.683594 292.40625 267.566406 292.550781 267.472656 292.714844 C 267.382812 292.878906 267.328125 293.058594 267.308594 293.246094 C 267.285156 293.433594 267.300781 293.617188 267.355469 293.796875 C 267.40625 293.980469 267.492188 294.144531 267.609375 294.292969 C 267.730469 294.4375 267.871094 294.558594 268.035156 294.648438 C 268.203125 294.738281 268.378906 294.796875 268.566406 294.816406 C 268.753906 294.835938 268.9375 294.820312 269.121094 294.769531 C 269.300781 294.714844 269.464844 294.628906 269.613281 294.511719 C 273.71875 291.21875 277.625 287.703125 281.332031 283.964844 C 281.464844 283.832031 281.566406 283.675781 281.636719 283.5 C 281.710938 283.328125 281.746094 283.144531 281.742188 282.957031 C 281.742188 282.765625 281.707031 282.585938 281.632812 282.410156 C 281.558594 282.238281 281.457031 282.082031 281.320312 281.949219 C 281.1875 281.816406 281.035156 281.714844 280.859375 281.644531 C 280.683594 281.574219 280.503906 281.539062 280.3125 281.539062 C 280.125 281.539062 279.941406 281.578125 279.769531 281.648438 C 279.59375 281.722656 279.441406 281.824219 279.308594 281.960938 Z M 255.25 301.238281 C 250.882812 303.984375 246.375 306.46875 241.726562 308.6875 C 241.554688 308.769531 241.40625 308.878906 241.28125 309.019531 C 241.15625 309.160156 241.0625 309.320312 240.996094 309.496094 C 240.933594 309.675781 240.910156 309.859375 240.917969 310.046875 C 240.929688 310.234375 240.972656 310.414062 241.054688 310.585938 C 241.136719 310.757812 241.246094 310.90625 241.386719 311.03125 C 241.527344 311.15625 241.6875 311.25 241.867188 311.316406 C 242.042969 311.378906 242.226562 311.402344 242.414062 311.394531 C 242.605469 311.382812 242.785156 311.339844 242.953125 311.257812 C 247.699219 308.988281 252.304688 306.453125 256.765625 303.652344 C 256.925781 303.550781 257.058594 303.421875 257.167969 303.269531 C 257.277344 303.117188 257.355469 302.945312 257.394531 302.761719 C 257.4375 302.578125 257.445312 302.394531 257.410156 302.207031 C 257.378906 302.019531 257.3125 301.847656 257.214844 301.6875 C 257.113281 301.527344 256.984375 301.394531 256.832031 301.285156 C 256.679688 301.175781 256.507812 301.097656 256.324219 301.058594 C 256.140625 301.015625 255.957031 301.011719 255.769531 301.042969 C 255.582031 301.074219 255.410156 301.140625 255.25 301.238281 Z M 227.433594 314.527344 C 222.558594 316.195312 217.601562 317.578125 212.5625 318.671875 C 212.378906 318.714844 212.210938 318.785156 212.054688 318.894531 C 211.898438 319.003906 211.769531 319.136719 211.667969 319.292969 C 211.566406 319.453125 211.5 319.625 211.464844 319.8125 C 211.429688 319.996094 211.433594 320.183594 211.476562 320.367188 C 211.515625 320.550781 211.589844 320.722656 211.695312 320.875 C 211.804688 321.03125 211.9375 321.160156 212.097656 321.261719 C 212.253906 321.363281 212.425781 321.433594 212.613281 321.464844 C 212.796875 321.5 212.984375 321.496094 213.167969 321.457031 C 218.316406 320.335938 223.378906 318.925781 228.355469 317.21875 C 228.535156 317.160156 228.695312 317.066406 228.835938 316.941406 C 228.980469 316.816406 229.089844 316.667969 229.175781 316.5 C 229.257812 316.328125 229.304688 316.152344 229.316406 315.960938 C 229.328125 315.773438 229.304688 315.589844 229.242188 315.410156 C 229.183594 315.234375 229.089844 315.074219 228.964844 314.929688 C 228.839844 314.789062 228.691406 314.675781 228.523438 314.59375 C 228.351562 314.511719 228.171875 314.464844 227.984375 314.453125 C 227.796875 314.441406 227.613281 314.464844 227.433594 314.527344 Z M 197.3125 321.078125 C 192.867188 321.515625 188.398438 321.738281 183.902344 321.738281 L 181.875 321.722656 C 181.683594 321.722656 181.503906 321.757812 181.328125 321.828125 C 181.152344 321.898438 180.996094 322 180.863281 322.132812 C 180.730469 322.265625 180.625 322.417969 180.550781 322.59375 C 180.476562 322.765625 180.441406 322.945312 180.4375 323.136719 C 180.4375 323.324219 180.472656 323.507812 180.542969 323.683594 C 180.613281 323.855469 180.714844 324.011719 180.847656 324.144531 C 180.980469 324.28125 181.132812 324.382812 181.308594 324.457031 C 181.480469 324.53125 181.664062 324.570312 181.851562 324.570312 L 183.902344 324.585938 C 188.492188 324.585938 193.054688 324.359375 197.59375 323.910156 C 197.78125 323.890625 197.957031 323.839844 198.125 323.75 C 198.292969 323.660156 198.433594 323.542969 198.554688 323.394531 C 198.675781 323.25 198.761719 323.085938 198.816406 322.90625 C 198.871094 322.726562 198.890625 322.542969 198.871094 322.351562 C 198.851562 322.164062 198.796875 321.988281 198.707031 321.820312 C 198.621094 321.65625 198.5 321.511719 198.355469 321.390625 C 198.210938 321.273438 198.046875 321.183594 197.867188 321.128906 C 197.683594 321.074219 197.5 321.058594 197.3125 321.078125 Z M 197.3125 321.078125 " fill-opacity="1" fill-rule="nonzero"/></g><g clip-path="url(#fc23309c82)"><path fill="#093c5f" d="M 139.835938 60.53125 C 144.703125 58.839844 149.652344 57.4375 154.6875 56.320312 C 154.871094 56.28125 155.042969 56.207031 155.195312 56.097656 C 155.351562 55.988281 155.480469 55.855469 155.582031 55.695312 C 155.679688 55.535156 155.75 55.363281 155.78125 55.179688 C 155.8125 54.992188 155.808594 54.804688 155.769531 54.621094 C 155.726562 54.4375 155.652344 54.269531 155.546875 54.113281 C 155.4375 53.960938 155.304688 53.832031 155.144531 53.730469 C 154.984375 53.628906 154.8125 53.5625 154.625 53.527344 C 154.441406 53.496094 154.253906 53.5 154.070312 53.539062 C 148.929688 54.679688 143.875 56.113281 138.902344 57.839844 C 138.722656 57.902344 138.5625 57.996094 138.421875 58.121094 C 138.28125 58.246094 138.167969 58.394531 138.085938 58.5625 C 138.003906 58.734375 137.957031 58.914062 137.945312 59.101562 C 137.933594 59.289062 137.960938 59.472656 138.023438 59.652344 C 138.085938 59.832031 138.179688 59.992188 138.304688 60.132812 C 138.429688 60.273438 138.578125 60.382812 138.746094 60.464844 C 138.917969 60.550781 139.097656 60.59375 139.285156 60.605469 C 139.472656 60.617188 139.65625 60.59375 139.835938 60.53125 Z M 169.929688 53.851562 C 174.558594 53.375 179.21875 53.132812 183.902344 53.132812 L 185.363281 53.140625 C 185.550781 53.144531 185.734375 53.109375 185.90625 53.035156 C 186.082031 52.964844 186.238281 52.863281 186.371094 52.730469 C 186.503906 52.597656 186.609375 52.445312 186.683594 52.269531 C 186.753906 52.097656 186.792969 51.914062 186.792969 51.726562 C 186.792969 51.539062 186.757812 51.355469 186.6875 51.179688 C 186.617188 51.003906 186.515625 50.851562 186.382812 50.71875 C 186.25 50.582031 186.09375 50.480469 185.921875 50.40625 C 185.746094 50.332031 185.566406 50.296875 185.378906 50.292969 L 183.902344 50.285156 C 179.121094 50.285156 174.363281 50.53125 169.636719 51.019531 C 169.449219 51.039062 169.269531 51.09375 169.105469 51.183594 C 168.9375 51.273438 168.796875 51.390625 168.675781 51.539062 C 168.558594 51.683594 168.472656 51.847656 168.417969 52.03125 C 168.363281 52.210938 168.347656 52.394531 168.367188 52.582031 C 168.382812 52.769531 168.4375 52.949219 168.527344 53.113281 C 168.617188 53.28125 168.738281 53.421875 168.882812 53.542969 C 169.03125 53.660156 169.195312 53.746094 169.375 53.800781 C 169.554688 53.855469 169.742188 53.871094 169.929688 53.851562 Z M 200.761719 54.183594 C 205.882812 54.824219 210.941406 55.753906 215.945312 56.980469 C 216.125 57.023438 216.3125 57.03125 216.5 57.003906 C 216.683594 56.976562 216.859375 56.910156 217.019531 56.8125 C 217.183594 56.714844 217.320312 56.589844 217.429688 56.4375 C 217.542969 56.285156 217.621094 56.117188 217.664062 55.933594 C 217.710938 55.75 217.71875 55.566406 217.6875 55.378906 C 217.660156 55.195312 217.597656 55.019531 217.5 54.859375 C 217.402344 54.695312 217.277344 54.558594 217.125 54.449219 C 216.972656 54.335938 216.804688 54.257812 216.621094 54.214844 C 211.511719 52.964844 206.34375 52.011719 201.113281 51.355469 C 200.925781 51.332031 200.742188 51.347656 200.558594 51.394531 C 200.378906 51.445312 200.210938 51.527344 200.0625 51.644531 C 199.914062 51.761719 199.792969 51.902344 199.699219 52.066406 C 199.605469 52.230469 199.546875 52.40625 199.523438 52.59375 C 199.5 52.78125 199.515625 52.964844 199.5625 53.144531 C 199.613281 53.328125 199.695312 53.492188 199.8125 53.644531 C 199.929688 53.792969 200.070312 53.914062 200.234375 54.007812 C 200.398438 54.101562 200.574219 54.160156 200.761719 54.183594 Z M 230.703125 61.511719 C 235.53125 63.308594 240.242188 65.375 244.835938 67.71875 C 245.003906 67.804688 245.183594 67.855469 245.371094 67.871094 C 245.558594 67.886719 245.742188 67.863281 245.921875 67.804688 C 246.101562 67.746094 246.265625 67.65625 246.40625 67.535156 C 246.550781 67.414062 246.667969 67.265625 246.753906 67.097656 C 246.835938 66.929688 246.886719 66.753906 246.902344 66.5625 C 246.917969 66.375 246.894531 66.191406 246.839844 66.011719 C 246.78125 65.832031 246.6875 65.671875 246.566406 65.527344 C 246.445312 65.382812 246.296875 65.269531 246.128906 65.183594 C 241.4375 62.789062 236.625 60.675781 231.695312 58.84375 C 231.515625 58.777344 231.332031 58.746094 231.144531 58.753906 C 230.957031 58.761719 230.777344 58.804688 230.605469 58.882812 C 230.433594 58.960938 230.28125 59.070312 230.152344 59.207031 C 230.027344 59.347656 229.929688 59.503906 229.863281 59.679688 C 229.796875 59.859375 229.765625 60.042969 229.773438 60.230469 C 229.78125 60.417969 229.824219 60.597656 229.902344 60.769531 C 229.980469 60.941406 230.089844 61.09375 230.226562 61.222656 C 230.367188 61.347656 230.523438 61.445312 230.703125 61.511719 Z M 258.164062 75.515625 C 262.453125 78.367188 266.570312 81.457031 270.511719 84.785156 C 270.65625 84.90625 270.816406 84.996094 270.996094 85.054688 C 271.175781 85.113281 271.359375 85.132812 271.550781 85.117188 C 271.738281 85.101562 271.914062 85.050781 272.082031 84.964844 C 272.25 84.875 272.394531 84.761719 272.515625 84.617188 C 272.640625 84.472656 272.730469 84.3125 272.785156 84.128906 C 272.84375 83.949219 272.863281 83.765625 272.847656 83.578125 C 272.832031 83.390625 272.78125 83.210938 272.695312 83.042969 C 272.609375 82.878906 272.492188 82.730469 272.347656 82.609375 C 268.324219 79.210938 264.121094 76.054688 259.742188 73.144531 C 259.582031 73.039062 259.410156 72.96875 259.226562 72.933594 C 259.042969 72.894531 258.855469 72.894531 258.671875 72.933594 C 258.484375 72.96875 258.316406 73.042969 258.160156 73.148438 C 258 73.253906 257.871094 73.382812 257.765625 73.539062 C 257.660156 73.699219 257.589844 73.871094 257.554688 74.054688 C 257.519531 74.238281 257.519531 74.425781 257.554688 74.609375 C 257.59375 74.796875 257.664062 74.964844 257.769531 75.121094 C 257.875 75.28125 258.007812 75.410156 258.164062 75.515625 Z M 281.71875 95.40625 C 285.253906 99.164062 288.558594 103.105469 291.640625 107.238281 C 291.753906 107.386719 291.890625 107.511719 292.054688 107.609375 C 292.214844 107.707031 292.390625 107.769531 292.578125 107.792969 C 292.761719 107.820312 292.949219 107.8125 293.132812 107.765625 C 293.316406 107.71875 293.480469 107.640625 293.632812 107.527344 C 293.785156 107.414062 293.910156 107.277344 294.003906 107.113281 C 294.101562 106.953125 294.164062 106.777344 294.191406 106.589844 C 294.21875 106.40625 294.207031 106.21875 294.164062 106.035156 C 294.117188 105.851562 294.035156 105.6875 293.921875 105.535156 C 290.777344 101.316406 287.402344 97.289062 283.792969 93.453125 C 283.664062 93.316406 283.511719 93.210938 283.339844 93.132812 C 283.167969 93.054688 282.988281 93.011719 282.796875 93.007812 C 282.609375 93 282.425781 93.03125 282.25 93.097656 C 282.074219 93.167969 281.917969 93.265625 281.777344 93.394531 C 281.640625 93.523438 281.535156 93.675781 281.457031 93.847656 C 281.378906 94.019531 281.335938 94.199219 281.332031 94.386719 C 281.324219 94.578125 281.355469 94.757812 281.421875 94.9375 C 281.492188 95.113281 281.589844 95.269531 281.71875 95.40625 Z M 281.71875 95.40625 " fill-opacity="1" fill-rule="nonzero"/></g><path fill="#cff7e5" d="M 283.554688 187.4375 C 283.554688 242.472656 238.941406 287.085938 183.902344 287.085938 C 128.867188 287.085938 84.25 242.472656 84.25 187.4375 C 84.25 132.398438 128.867188 87.785156 183.902344 87.785156 C 238.941406 87.785156 283.554688 132.398438 283.554688 187.4375 " fill-opacity="1" fill-rule="nonzero"/><path fill="#e7e6e6" d="M 216.6875 134.527344 L 246.890625 134.527344 L 246.890625 112.152344 L 216.6875 112.152344 Z M 216.6875 134.527344 " fill-opacity="1" fill-rule="nonzero"/><path stroke-linecap="round" transform="matrix(0.0126045, 0, 0, -0.0126045, 46.819348, 324.707059)" fill="none" stroke-linejoin="round" d="M 13476.753254 16863.357964 L 13476.753254 15088.202644 L 15872.965009 15088.202644 L 15872.965009 16863.357964 " stroke="#093c5f" stroke-width="225.935" stroke-opacity="1" stroke-miterlimit="10"/><path fill="#8c52ff" d="M 309.539062 155.78125 L 325.730469 155.78125 L 325.730469 125.578125 L 309.539062 125.578125 Z M 309.539062 155.78125 " fill-opacity="1" fill-rule="nonzero"/><g clip-path="url(#b3d21fd938)"><path stroke-linecap="round" transform="matrix(0.0126045, 0, 0, -0.0126045, 46.819348, 324.707028)" fill="none" stroke-linejoin="round" d="M 22127.849634 15798.202721 L 20843.279117 15798.202721 L 20843.279117 13401.990601 L 22127.849634 13401.990601 " stroke="#093c5f" stroke-width="225.935" stroke-opacity="1" stroke-miterlimit="10"/></g><path fill="#ffd349" d="M 281.574219 240.804688 L 311.777344 240.804688 L 311.777344 218.429688 L 281.574219 218.429688 Z M 281.574219 240.804688 " fill-opacity="1" fill-rule="nonzero"/><path stroke-linecap="round" transform="matrix(0.0126045, 0, 0, -0.0126045, 46.819348, 324.707059)" fill="none" stroke-linejoin="round" d="M 21020.853456 6656.524782 L 21020.853456 8431.680102 L 18624.6417 8431.680102 L 18624.6417 6656.524782 " stroke="#093c5f" stroke-width="225.935" stroke-opacity="1" stroke-miterlimit="10"/><path fill="#ff4135" d="M 202.734375 227.382812 L 218.925781 227.382812 L 218.925781 197.175781 L 202.734375 197.175781 Z M 202.734375 227.382812 " fill-opacity="1" fill-rule="nonzero"/><path stroke-linecap="round" transform="matrix(0.0126045, 0, 0, -0.0126045, 46.819348, 324.707059)" fill="none" stroke-linejoin="round" d="M 12369.760446 7721.370047 L 13654.330767 7721.370047 L 13654.330767 10117.891711 L 12369.760446 10117.891711 " stroke="#093c5f" stroke-width="225.935" stroke-opacity="1" stroke-miterlimit="10"/><path stroke-linecap="round" transform="matrix(0.0126045, 0, 0, -0.0126045, 46.819348, 324.707059)" fill-opacity="1" fill="#ff4135" fill-rule="nonzero" stroke-linejoin="round" d="M 15251.908574 7632.736244 L 17827.867202 7632.736244 C 17827.867202 7632.736244 18152.341297 7521.479128 18363.388918 7463.836166 C 18650.054189 7385.739249 18991.573247 7366.524928 18991.573247 7366.524928 L 20504.855968 7366.524928 C 20652.062459 7366.524928 20771.067285 7485.839662 20771.067285 7632.736244 C 20771.067285 7779.942735 20652.062459 7898.947561 20504.855968 7898.947561 L 21032.939883 7898.947561 C 21229.111901 7898.947561 21387.785002 8057.93057 21387.785002 8254.102588 C 21387.785002 8449.964697 21229.111901 8608.947707 21032.939883 8608.947707 C 21229.111901 8608.947707 21387.785002 8767.930717 21387.785002 8964.102734 C 21387.785002 9160.274752 21229.111901 9318.947853 21032.939883 9318.947853 C 21229.111901 9318.947853 21387.785002 9477.930863 21387.785002 9674.102881 C 21387.785002 9870.274898 21229.111901 10029.257908 21032.939883 10029.257908 L 18624.6417 10029.257908 L 18624.6417 10742.976955 C 18624.6417 10742.976955 17667.024742 10760.331826 17319.617424 10117.891711 L 15251.908574 10117.891711 " stroke="#093c5f" stroke-width="225.935" stroke-opacity="1" stroke-miterlimit="10"/><path stroke-linecap="round" transform="matrix(0.0126045, 0, 0, -0.0126045, 46.819348, 324.707059)" fill="none" stroke-linejoin="round" d="M 19511.909452 9318.947853 L 21032.939883 9318.947853 " stroke="#093c5f" stroke-width="225.935" stroke-opacity="1" stroke-miterlimit="10"/><path stroke-linecap="round" transform="matrix(0.0126045, 0, 0, -0.0126045, 46.819348, 324.707059)" fill="none" stroke-linejoin="round" d="M 19511.909452 8608.947707 L 21032.939883 8608.947707 " stroke="#093c5f" stroke-width="225.935" stroke-opacity="1" stroke-miterlimit="10"/><path stroke-linecap="round" transform="matrix(0.0126045, 0, 0, -0.0126045, 46.819348, 324.707059)" fill="none" stroke-linejoin="round" d="M 19600.853163 7898.947561 L 20504.855968 7898.947561 " stroke="#093c5f" stroke-width="225.935" stroke-opacity="1" stroke-miterlimit="10"/><path stroke-linecap="round" transform="matrix(0.0126045, 0, 0, -0.0126045, 46.819348, 324.707059)" fill="none" stroke-linejoin="round" d="M 19511.909452 9318.947853 L 21032.939883 9318.947853 " stroke="#093c5f" stroke-width="225.935" stroke-opacity="1" stroke-miterlimit="10"/><path stroke-linecap="round" transform="matrix(0.0126045, 0, 0, -0.0126045, 46.819348, 324.707059)" fill="none" stroke-linejoin="round" d="M 19511.909452 8608.947707 L 21032.939883 8608.947707 " stroke="#093c5f" stroke-width="225.935" stroke-opacity="1" stroke-miterlimit="10"/><path stroke-linecap="round" transform="matrix(0.0126045, 0, 0, -0.0126045, 46.819348, 324.707059)" fill="none" stroke-linejoin="round" d="M 19600.853163 7898.947561 L 20504.855968 7898.947561 " stroke="#093c5f" stroke-width="225.935" stroke-opacity="1" stroke-miterlimit="10"/><path stroke-linecap="round" transform="matrix(0.0126045, 0, 0, -0.0126045, 46.819348, 324.707059)" fill-opacity="1" fill="#e7e6e6" fill-rule="nonzero" stroke-linejoin="round" d="M 13387.809543 13490.624837 L 13387.809543 10914.666209 C 13387.809543 10914.666209 13276.862335 10590.192114 13219.219373 10378.834584 C 13141.122456 10092.479222 13121.598226 9750.960164 13121.598226 9750.960164 L 13121.598226 8237.367534 C 13121.598226 8090.470952 13240.912961 7971.156218 13387.809543 7971.156218 C 13535.016033 7971.156218 13654.330767 8090.470952 13654.330767 8237.367534 L 13654.330767 7709.593528 C 13654.330767 7513.42151 13813.003869 7354.4385 14009.175886 7354.4385 C 14205.347904 7354.4385 14364.330914 7513.42151 14364.330914 7709.593528 C 14364.330914 7513.42151 14523.313923 7354.4385 14719.176033 7354.4385 C 14915.34805 7354.4385 15074.33106 7513.42151 15074.33106 7709.593528 C 15074.33106 7513.42151 15233.31407 7354.4385 15429.176179 7354.4385 C 15625.348197 7354.4385 15784.331206 7513.42151 15784.331206 7709.593528 L 15784.331206 10117.891711 L 16498.050254 10117.891711 C 16498.050254 10117.891711 16515.715032 11075.508669 15872.965009 11422.606078 L 15872.965009 13490.624837 " stroke="#093c5f" stroke-width="225.935" stroke-opacity="1" stroke-miterlimit="10"/><path stroke-linecap="round" transform="matrix(0.0126045, 0, 0, -0.0126045, 46.819348, 324.707059)" fill="none" stroke-linejoin="round" d="M 15074.33106 9230.314051 L 15074.33106 7709.593528 " stroke="#093c5f" stroke-width="225.935" stroke-opacity="1" stroke-miterlimit="10"/><path stroke-linecap="round" transform="matrix(0.0126045, 0, 0, -0.0126045, 46.819348, 324.707059)" fill="none" stroke-linejoin="round" d="M 14364.330914 9230.314051 L 14364.330914 7709.593528 " stroke="#093c5f" stroke-width="225.935" stroke-opacity="1" stroke-miterlimit="10"/><path stroke-linecap="round" transform="matrix(0.0126045, 0, 0, -0.0126045, 46.819348, 324.707059)" fill="none" stroke-linejoin="round" d="M 13654.330767 9141.680248 L 13654.330767 8237.367534 " stroke="#093c5f" stroke-width="225.935" stroke-opacity="1" stroke-miterlimit="10"/><path stroke-linecap="round" transform="matrix(0.0126045, 0, 0, -0.0126045, 46.819348, 324.707059)" fill-opacity="1" fill="#8c52ff" fill-rule="nonzero" stroke-linejoin="round" d="M 18713.275503 15886.836593 L 16669.739508 15886.836593 C 16669.739508 15886.836593 16345.265412 15998.093709 16133.907883 16055.736671 C 15847.55252 16133.833588 15506.033462 16153.357817 15506.033462 16153.357817 L 13992.750741 16153.357817 C 13845.544251 16153.357817 13726.539425 16034.043083 13726.539425 15886.836593 C 13726.539425 15739.940011 13845.544251 15620.625276 13992.750741 15620.625276 L 13464.666826 15620.625276 C 13268.494808 15620.625276 13109.511799 15461.642267 13109.511799 15265.780157 C 13109.511799 15069.60814 13268.494808 14910.62513 13464.666826 14910.62513 C 13268.494808 14910.62513 13109.511799 14751.64212 13109.511799 14555.780011 C 13109.511799 14359.607993 13268.494808 14200.624984 13464.666826 14200.624984 C 13268.494808 14200.624984 13109.511799 14041.641974 13109.511799 13845.469956 C 13109.511799 13649.607847 13268.494808 13490.624837 13464.666826 13490.624837 L 15872.965009 13490.624837 L 15872.965009 12776.595882 C 15872.965009 12776.595882 16830.581968 12759.241011 17177.989285 13401.991035 L 18713.275503 13401.991035 " stroke="#093c5f" stroke-width="225.935" stroke-opacity="1" stroke-miterlimit="10"/><path stroke-linecap="round" transform="matrix(0.0126045, 0, 0, -0.0126045, 46.819348, 324.707059)" fill="none" stroke-linejoin="round" d="M 13464.666826 14200.624984 L 14985.387349 14200.624984 " stroke="#093c5f" stroke-width="225.935" stroke-opacity="1" stroke-miterlimit="10"/><path stroke-linecap="round" transform="matrix(0.0126045, 0, 0, -0.0126045, 46.819348, 324.707059)" fill="none" stroke-linejoin="round" d="M 13464.666826 14910.62513 L 14985.387349 14910.62513 " stroke="#093c5f" stroke-width="225.935" stroke-opacity="1" stroke-miterlimit="10"/><path stroke-linecap="round" transform="matrix(0.0126045, 0, 0, -0.0126045, 46.819348, 324.707059)" fill="none" stroke-linejoin="round" d="M 13992.750741 15620.625276 L 14985.387349 15620.625276 " stroke="#093c5f" stroke-width="225.935" stroke-opacity="1" stroke-miterlimit="10"/><path stroke-linecap="round" transform="matrix(0.0126045, 0, 0, -0.0126045, 46.819348, 324.707059)" fill-opacity="1" fill="#ffd349" fill-rule="nonzero" stroke-linejoin="round" d="M 21109.487258 10117.891711 L 21109.487258 12605.216536 C 21109.487258 12605.216536 21220.744374 12929.690632 21278.387337 13141.048161 C 21356.484254 13427.403523 21376.008483 13768.922581 21376.008483 13768.922581 L 21376.008483 15282.205303 C 21376.008483 15429.411793 21256.693749 15548.416619 21109.487258 15548.416619 C 20962.590676 15548.416619 20843.275942 15429.411793 20843.275942 15282.205303 L 20843.275942 15810.289218 C 20843.275942 16006.461235 20684.292932 16165.444245 20488.430823 16165.444245 C 20292.258805 16165.444245 20133.275796 16006.461235 20133.275796 15810.289218 C 20133.275796 16006.461235 19974.292786 16165.444245 19778.430677 16165.444245 C 19582.258659 16165.444245 19423.275649 16006.461235 19423.275649 15810.289218 C 19423.275649 16006.461235 19264.29264 16165.444245 19068.120622 16165.444245 C 18872.258513 16165.444245 18713.275503 16006.461235 18713.275503 15810.289218 L 18713.275503 13401.991035 L 17999.246547 13401.991035 C 17999.246547 13401.991035 17981.891677 12444.374076 18624.6417 12096.966759 L 18624.6417 10117.891711 " stroke="#093c5f" stroke-width="225.935" stroke-opacity="1" stroke-miterlimit="10"/><path stroke-linecap="round" transform="matrix(0.0126045, 0, 0, -0.0126045, 46.819348, 324.707059)" fill="none" stroke-linejoin="round" d="M 19423.275649 14289.258786 L 19423.275649 15810.289218 " stroke="#093c5f" stroke-width="225.935" stroke-opacity="1" stroke-miterlimit="10"/><path stroke-linecap="round" transform="matrix(0.0126045, 0, 0, -0.0126045, 46.819348, 324.707059)" fill="none" stroke-linejoin="round" d="M 20133.275796 14289.258786 L 20133.275796 15810.289218 " stroke="#093c5f" stroke-width="225.935" stroke-opacity="1" stroke-miterlimit="10"/><path stroke-linecap="round" transform="matrix(0.0126045, 0, 0, -0.0126045, 46.819348, 324.707059)" fill="none" stroke-linejoin="round" d="M 20843.275942 14378.202497 L 20843.275942 15282.205303 " stroke="#093c5f" stroke-width="225.935" stroke-opacity="1" stroke-miterlimit="10"/><path stroke-linecap="round" transform="matrix(0.0126045, 0, 0, -0.0126045, 46.819348, 324.707059)" fill-opacity="1" fill="#e7e6e6" fill-rule="nonzero" stroke-linejoin="round" d="M 822.57343 14165.295426 L 2137.824683 14165.295426 L 2137.824683 14132.755044 C 2284.411357 14732.117891 2841.006845 15172.807637 3487.475769 15154.83295 C 3615.467938 15151.114049 4058.636952 15124.152018 4165.245441 15111.445774 L 7688.594051 14690.590165 C 8172.361065 14632.637294 8556.95739 14191.017823 8543.011512 13709.11026 C 8540.532245 13686.486947 8535.883619 13664.48345 8531.544901 13642.479954 L 9152.601336 14059.306753 L 10665.884058 15074.566674 C 11302.435913 15501.310542 11765.439064 14757.53038 11765.439064 14757.53038 C 11765.439064 14757.53038 12266.870857 14039.162707 11530.218588 13545.168716 L 8534.024168 11535.102828 C 8377.520426 11412.998918 8178.869141 11342.339802 7965.032344 11348.228062 L 336.946966 11348.228062 " stroke="#093c5f" stroke-width="225.935" stroke-opacity="1" stroke-miterlimit="10"/><path stroke-linecap="round" transform="matrix(0.0126045, 0, 0, -0.0126045, 46.819348, 324.707059)" fill="none" stroke-linejoin="round" d="M 7756.463991 14678.193829 C 8241.470638 14620.240958 8591.047314 14182.960205 8532.784535 13706.321084 C 8474.831664 13229.681964 8030.113109 12887.233181 7544.796553 12945.186052 L 5256.123012 13218.525261 " stroke="#093c5f" stroke-width="225.935" stroke-opacity="1" stroke-miterlimit="10"/><path stroke-linecap="round" transform="matrix(0.0126045, 0, 0, -0.0126045, 46.819348, 324.707059)" fill="none" stroke-linejoin="round" d="M 2355.38038 14596.068103 C 2355.38038 14596.068103 2014.48114 14127.486601 2116.441003 13522.235494 " stroke="#093c5f" stroke-width="225.935" stroke-opacity="1" stroke-miterlimit="10"/><path stroke-linecap="round" transform="matrix(0.0126045, 0, 0, -0.0126045, 46.819348, 324.707059)" fill="none" stroke-linejoin="round" d="M 7725.473151 13834.003345 L 7314.844519 13879.249972 C 7012.064012 13912.720079 6736.555443 13694.544565 6702.775428 13394.863141 L 6693.168267 13058.612526 " stroke="#093c5f" stroke-width="225.935" stroke-opacity="1" stroke-miterlimit="10"/><path stroke-linecap="round" transform="matrix(0.0126045, 0, 0, -0.0126045, 46.819348, 324.707059)" fill="none" stroke-linejoin="round" d="M 11123.928674 14399.276269 L 10838.812946 14152.589181 C 10628.385141 13970.363042 10607.001462 13651.157389 10791.087052 13442.898943 L 11015.460734 13228.132422 " stroke="#093c5f" stroke-width="225.935" stroke-opacity="1" stroke-miterlimit="10"/><path fill="#8c52ff" d="M 172.558594 71.046875 C 164.574219 63.523438 151.832031 64.3125 144.078125 72.070312 L 141.316406 74.832031 C 141.15625 74.992188 140.894531 74.992188 140.734375 74.832031 L 137.941406 72.035156 C 130.117188 64.210938 117.433594 64.210938 109.609375 72.035156 C 101.785156 79.859375 101.785156 92.546875 109.609375 100.367188 C 109.609375 100.367188 136.007812 131.785156 141.027344 131.785156 C 146.042969 131.785156 173.003906 99.808594 173.003906 99.808594 C 180.972656 91.839844 180.824219 78.828125 172.558594 71.046875 " fill-opacity="1" fill-rule="nonzero"/><path stroke-linecap="round" transform="matrix(0.0126045, 0, 0, -0.0126045, 46.819348, 324.707059)" fill="none" stroke-linejoin="round" d="M 9975.718049 20124.524066 C 9342.265278 20721.407646 8331.344074 20658.806149 7716.175899 20043.328065 L 7497.070659 19824.222826 C 7484.364415 19811.516581 7463.600552 19811.516581 7450.894307 19824.222826 L 7229.309801 20046.117241 C 6608.563274 20666.863767 5602.290696 20666.863767 4981.544169 20046.117241 C 4360.797642 19425.370714 4360.797642 18418.788228 4981.544169 17798.351609 C 4981.544169 17798.351609 7075.905142 15305.758341 7474.137437 15305.758341 C 7872.059824 15305.758341 10011.047607 17842.66851 10011.047607 17842.66851 C 10643.260745 18474.881648 10631.484225 19507.186531 9975.718049 20124.524066 Z M 9975.718049 20124.524066 " stroke="#093c5f" stroke-width="225.935" stroke-opacity="1" stroke-miterlimit="10"/><path fill="#ff4135" d="M 165.65625 285.644531 C 165.65625 285.644531 164.167969 253.53125 145.195312 252.9375 C 137.433594 252.695312 130.707031 252.789062 125.074219 252.898438 C 105.296875 253.285156 105.5 285.839844 105.5 285.847656 C 105.5 288.757812 118.96875 291.117188 135.578125 291.117188 C 152.1875 291.117188 165.65625 288.757812 165.65625 285.847656 C 165.65625 285.78125 165.640625 285.714844 165.625 285.644531 L 165.65625 285.644531 " fill-opacity="1" fill-rule="nonzero"/><path stroke-linecap="round" transform="matrix(0.0126045, 0, 0, -0.0126045, 46.819348, 324.707059)" fill="none" stroke-linejoin="round" d="M 9428.109905 3099.086248 C 9428.109905 3099.086248 9310.034804 5646.843212 7804.809701 5693.949288 C 7189.021709 5713.163609 6655.359442 5705.725808 6208.471528 5697.048372 C 4639.405295 5666.367441 4655.520532 3083.590828 4655.520532 3082.971011 C 4655.520532 2852.089253 5724.084698 2664.904578 7041.815218 2664.904578 C 8359.545739 2664.904578 9428.109905 2852.089253 9428.109905 3082.971011 C 9428.109905 3088.239454 9426.870271 3093.507897 9425.630638 3099.086248 Z M 9428.109905 3099.086248 " stroke="#093c5f" stroke-width="225.935" stroke-opacity="1" stroke-miterlimit="10"/><path fill="#ffd349" d="M 200.992188 295.867188 C 200.992188 295.867188 199.503906 263.75 180.53125 263.15625 C 172.769531 262.914062 166.042969 263.007812 160.40625 263.117188 C 140.632812 263.503906 140.835938 296.058594 140.835938 296.066406 C 140.835938 298.976562 154.300781 301.335938 170.914062 301.335938 C 187.523438 301.335938 200.992188 298.976562 200.992188 296.066406 C 200.992188 296 200.976562 295.933594 200.960938 295.867188 L 200.992188 295.867188 " fill-opacity="1" fill-rule="nonzero"/><path stroke-linecap="round" transform="matrix(0.0126045, 0, 0, -0.0126045, 46.819348, 324.707059)" fill="none" stroke-linejoin="round" d="M 12231.541299 2288.055963 C 12231.541299 2288.055963 12113.466198 4836.122835 10608.241095 4883.228912 C 9992.453103 4902.443233 9458.790837 4895.005431 9011.593014 4886.327996 C 7442.836689 4855.647064 7458.951926 2272.870451 7458.951926 2272.250635 C 7458.951926 2041.368876 8527.206184 1854.184202 9845.246612 1854.184202 C 11162.977133 1854.184202 12231.541299 2041.368876 12231.541299 2272.250635 C 12231.541299 2277.519077 12230.301665 2282.78752 12229.062032 2288.055963 Z M 12231.541299 2288.055963 " stroke="#093c5f" stroke-width="225.935" stroke-opacity="1" stroke-miterlimit="10"/><path fill="#8c52ff" d="M 130.320312 297.234375 C 130.320312 297.234375 128.832031 265.117188 109.859375 264.523438 C 102.097656 264.285156 95.375 264.375 89.738281 264.488281 C 69.964844 264.871094 70.164062 297.425781 70.164062 297.433594 L 70.164062 297.4375 C 70.164062 300.34375 83.632812 302.703125 100.242188 302.703125 C 116.855469 302.703125 130.320312 300.34375 130.320312 297.4375 C 130.320312 297.367188 130.304688 297.300781 130.289062 297.234375 L 130.320312 297.234375 " fill-opacity="1" fill-rule="nonzero"/><path stroke-linecap="round" transform="matrix(0.0126045, 0, 0, -0.0126045, 46.819348, 324.707059)" fill="none" stroke-linejoin="round" d="M 6624.678511 2179.588023 C 6624.678511 2179.588023 6506.60341 4727.654895 5001.378307 4774.760971 C 4385.590314 4793.665384 3852.237957 4786.537491 3405.040134 4777.550147 C 1836.283809 4747.179124 1852.089137 2164.402511 1852.089137 2163.782694 L 1852.089137 2163.472786 C 1852.089137 1932.900936 2920.653304 1745.716262 4238.383824 1745.716262 C 5556.424253 1745.716262 6624.678511 1932.900936 6624.678511 2163.472786 C 6624.678511 2169.051137 6623.438877 2174.31958 6622.199243 2179.588023 Z M 6624.678511 2179.588023 " stroke="#093c5f" stroke-width="225.935" stroke-opacity="1" stroke-miterlimit="10"/><path fill="#e7e6e6" d="M 85.28125 320.308594 L 117.898438 289.683594 C 119.109375 288.589844 120.976562 288.6875 122.070312 289.894531 L 151.328125 322.234375 C 152.511719 323.539062 154.527344 323.640625 155.832031 322.460938 L 166.609375 312.726562 L 204.832031 278.375 C 205.722656 277.574219 207.101562 277.648438 207.894531 278.554688 L 212.582031 283.878906 L 213.695312 271.125 L 214.566406 261.160156 C 214.699219 259.640625 213.535156 258.316406 212.007812 258.253906 L 202.007812 257.839844 L 189.203125 257.3125 L 193.347656 262.023438 C 194.125 262.90625 194.050781 264.25 193.175781 265.039062 L 156.898438 297.632812 C 155.699219 298.714844 153.851562 298.621094 152.769531 297.425781 L 127.445312 269.4375 L 123.222656 264.769531 C 122.1875 263.625 120.421875 263.539062 119.277344 264.570312 L 74.015625 306.738281 " fill-opacity="1" fill-rule="nonzero"/><g clip-path="url(#ac7a63eb75)"><path stroke-linecap="round" transform="matrix(0.0126045, 0, 0, -0.0126045, 46.819348, 324.707028)" fill="none" stroke-linejoin="round" d="M 3051.435114 348.956677 L 5639.170655 2778.63891 C 5735.242274 2865.413275 5883.378512 2857.665564 5970.152877 2761.903853 L 8291.367153 196.171812 C 8385.269413 92.66239 8545.182172 84.60477 8648.691594 178.197122 L 9503.729002 950.488974 L 12536.183167 3675.823867 C 12606.842293 3739.355099 12716.239975 3733.466838 12779.15139 3661.568078 L 13151.041528 3239.162863 L 13239.365435 4251.013946 L 13308.475019 5041.590397 C 13319.011906 5162.144784 13226.659189 5267.203747 13105.484986 5272.162283 L 12312.119359 5305.012578 L 11296.239466 5346.850219 L 11625.052329 4973.10063 C 11686.72411 4903.061321 11680.83585 4796.452815 11611.416358 4733.851308 L 8733.2966 2147.975218 C 8638.154707 2062.130578 8491.568011 2069.56838 8405.723371 2164.400365 L 6396.586902 4384.894396 L 6061.57587 4755.234991 C 5979.450131 4846.038167 5839.371512 4852.856152 5748.568337 4771.040322 L 2157.659149 1425.578625 " stroke="#093c5f" stroke-width="225.935" stroke-opacity="1" stroke-miterlimit="10"/></g><path fill="#e7e6e6" d="M 154.527344 224.910156 C 154.527344 235.785156 145.710938 244.601562 134.835938 244.601562 C 123.964844 244.601562 115.148438 235.785156 115.148438 224.910156 C 115.148438 214.035156 123.964844 205.222656 134.835938 205.222656 C 145.710938 205.222656 154.527344 214.035156 154.527344 224.910156 " fill-opacity="1" fill-rule="nonzero"/><path stroke-linecap="round" transform="matrix(0.0126045, 0, 0, -0.0126045, 46.819348, 324.707059)" fill="none" stroke-linejoin="round" d="M 8545.180871 7917.542065 C 8545.180871 7054.757077 7845.71761 6355.293816 6982.932622 6355.293816 C 6120.457542 6355.293816 5420.994282 7054.757077 5420.994282 7917.542065 C 5420.994282 8780.327053 6120.457542 9479.480405 6982.932622 9479.480405 C 7845.71761 9479.480405 8545.180871 8780.327053 8545.180871 7917.542065 Z M 8545.180871 7917.542065 " stroke="#093c5f" stroke-width="225.935" stroke-opacity="1" stroke-miterlimit="10"/><path fill="#e7e6e6" d="M 119.933594 235.941406 C 119.933594 246.816406 111.117188 255.632812 100.242188 255.632812 C 89.367188 255.632812 80.550781 246.816406 80.550781 235.941406 C 80.550781 225.066406 89.367188 216.25 100.242188 216.25 C 111.117188 216.25 119.933594 225.066406 119.933594 235.941406 " fill-opacity="1" fill-rule="nonzero"/><path stroke-linecap="round" transform="matrix(0.0126045, 0, 0, -0.0126045, 46.819348, 324.707059)" fill="none" stroke-linejoin="round" d="M 5800.632073 7042.360741 C 5800.632073 6179.575753 5101.168812 5480.112492 4238.383824 5480.112492 C 3375.598836 5480.112492 2676.135575 6179.575753 2676.135575 7042.360741 C 2676.135575 7905.145729 3375.598836 8604.608989 4238.383824 8604.608989 C 5101.168812 8604.608989 5800.632073 7905.145729 5800.632073 7042.360741 Z M 5800.632073 7042.360741 " stroke="#093c5f" stroke-width="225.935" stroke-opacity="1" stroke-miterlimit="10"/><path fill="#e7e6e6" d="M 188.652344 235.941406 C 188.652344 246.816406 179.839844 255.632812 168.964844 255.632812 C 158.089844 255.632812 149.273438 246.816406 149.273438 235.941406 C 149.273438 225.066406 158.089844 216.25 168.964844 216.25 C 179.839844 216.25 188.652344 225.066406 188.652344 235.941406 " fill-opacity="1" fill-rule="nonzero"/><path stroke-linecap="round" transform="matrix(0.0126045, 0, 0, -0.0126045, 46.819348, 324.707059)" fill="none" stroke-linejoin="round" d="M 11252.540661 7042.360741 C 11252.540661 6179.575753 10553.387308 5480.112492 9690.60232 5480.112492 C 8827.817332 5480.112492 8128.354072 6179.575753 8128.354072 7042.360741 C 8128.354072 7905.145729 8827.817332 8604.608989 9690.60232 8604.608989 C 10553.387308 8604.608989 11252.540661 7905.145729 11252.540661 7042.360741 Z M 11252.540661 7042.360741 " stroke="#093c5f" stroke-width="225.935" stroke-opacity="1" stroke-miterlimit="10"/></svg>