<svg xmlns="http://www.w3.org/2000/svg" xmlns:xlink="http://www.w3.org/1999/xlink" width="500" zoomAndPan="magnify" viewBox="0 0 375 374.999991" height="500" preserveAspectRatio="xMidYMid meet" version="1.0"><defs><clipPath id="a12ed59e21"><path d="M 100.734375 59 L 130 59 L 130 316 L 100.734375 316 Z M 100.734375 59 " clip-rule="nonzero"/></clipPath></defs><g clip-path="url(#a12ed59e21)"><path fill="#a172ff" d="M 129.183594 301.285156 C 129.183594 301.285156 129.183594 315.507812 114.957031 315.507812 C 100.734375 315.507812 100.734375 301.285156 100.734375 301.285156 L 100.734375 73.703125 C 100.734375 73.703125 100.734375 59.480469 114.957031 59.480469 C 129.183594 59.480469 129.183594 73.703125 129.183594 73.703125 Z M 129.183594 301.285156 " fill-opacity="1" fill-rule="nonzero"/></g><path fill="#dd2e44" d="M 114.957031 87.925781 C 114.957031 72.28125 126.59375 64.8125 140.816406 71.335938 L 259.777344 125.863281 C 274.003906 132.382812 274.003906 143.050781 259.777344 149.566406 L 140.816406 204.09375 C 126.59375 210.609375 114.957031 203.140625 114.957031 187.496094 Z M 114.957031 87.925781 " fill-opacity="1" fill-rule="nonzero"/></svg>