<svg xmlns="http://www.w3.org/2000/svg" xmlns:xlink="http://www.w3.org/1999/xlink" width="500" zoomAndPan="magnify" viewBox="0 0 375 374.999991" height="500" preserveAspectRatio="xMidYMid meet" version="1.0"><defs><clipPath id="79689530e0"><path d="M 212 63.28125 L 255 63.28125 L 255 108 L 212 108 Z M 212 63.28125 " clip-rule="nonzero"/></clipPath><clipPath id="ea36155953"><path d="M 120 63.28125 L 162 63.28125 L 162 108 L 120 108 Z M 120 63.28125 " clip-rule="nonzero"/></clipPath></defs><path fill="#8fb4e0" d="M 262.617188 298.820312 C 262.390625 300.035156 257.988281 299.214844 258.214844 298.003906 C 258.214844 298.003906 266.289062 260.113281 267.503906 260.339844 C 268.714844 260.5625 262.617188 298.820312 262.617188 298.820312 Z M 262.617188 298.820312 " fill-opacity="1" fill-rule="evenodd"/><path fill="#dd6776" d="M 318.746094 279.867188 C 319.167969 281.027344 314.964844 282.558594 314.539062 281.398438 C 314.539062 281.398438 302.738281 246.144531 303.898438 245.71875 C 305.058594 245.296875 318.746094 279.867188 318.746094 279.867188 Z M 318.746094 279.867188 " fill-opacity="1" fill-rule="evenodd"/><path fill="#d26caa" d="M 116.835938 298.003906 C 117.0625 299.214844 112.664062 300.035156 112.4375 298.820312 C 112.4375 298.820312 106.335938 260.5625 107.550781 260.339844 C 108.761719 260.113281 116.835938 298.003906 116.835938 298.003906 Z M 116.835938 298.003906 " fill-opacity="1" fill-rule="evenodd"/><path fill="#fde266" d="M 60.511719 281.398438 C 60.085938 282.558594 55.882812 281.027344 56.304688 279.867188 C 56.304688 279.867188 69.992188 245.296875 71.152344 245.71875 C 72.3125 246.144531 60.511719 281.398438 60.511719 281.398438 Z M 60.511719 281.398438 " fill-opacity="1" fill-rule="evenodd"/><path fill="#9983bd" d="M 252.941406 160.308594 C 253.257812 161.503906 248.933594 162.660156 248.613281 161.46875 C 248.613281 161.46875 242.625 135.257812 243.816406 134.9375 C 245.011719 134.621094 252.941406 160.308594 252.941406 160.308594 Z M 252.941406 160.308594 " fill-opacity="1" fill-rule="evenodd"/><path fill="#8fb4e0" d="M 214.15625 152.480469 C 213.828125 153.667969 209.519531 152.464844 209.847656 151.277344 C 209.847656 151.277344 217.746094 126.683594 218.941406 127.015625 C 220.128906 127.34375 214.15625 152.480469 214.15625 152.480469 Z M 214.15625 152.480469 " fill-opacity="1" fill-rule="evenodd"/><path fill="#d26caa" d="M 126.25 161.46875 C 125.929688 162.660156 121.609375 161.503906 121.925781 160.3125 C 121.925781 160.3125 129.855469 134.621094 131.046875 134.941406 C 132.242188 135.257812 126.25 161.46875 126.25 161.46875 Z M 126.25 161.46875 " fill-opacity="1" fill-rule="evenodd"/><path fill="#fde266" d="M 165.015625 151.277344 C 165.351562 152.464844 161.039062 153.667969 160.707031 152.480469 C 160.707031 152.480469 154.734375 127.34375 155.925781 127.011719 C 157.113281 126.683594 165.015625 151.277344 165.015625 151.277344 Z M 165.015625 151.277344 " fill-opacity="1" fill-rule="evenodd"/><g clip-path="url(#79689530e0)"><path fill="#d26caa" d="M 233.769531 67.75 C 224.738281 67.75 217.410156 75.074219 217.410156 84.097656 C 217.410156 88.71875 219.304688 93.496094 222.339844 97.125 C 225.273438 100.636719 229.292969 103.09375 233.769531 103.09375 C 238.242188 103.09375 242.261719 100.636719 245.195312 97.125 C 248.230469 93.496094 250.128906 88.71875 250.128906 84.097656 C 250.128906 75.074219 242.796875 67.75 233.769531 67.75 Z M 233.769531 63.277344 C 245.269531 63.277344 254.605469 72.605469 254.605469 84.097656 C 254.605469 95.496094 245.179688 107.566406 233.769531 107.566406 C 222.355469 107.566406 212.933594 95.496094 212.933594 84.097656 C 212.933594 72.605469 222.269531 63.277344 233.769531 63.277344 Z M 233.769531 63.277344 " fill-opacity="1" fill-rule="evenodd"/></g><path fill="#fde266" d="M 250.671875 158.636719 C 251.902344 158.5 253.007812 159.386719 253.144531 160.609375 C 253.277344 161.839844 252.394531 162.945312 251.164062 163.078125 C 251.117188 163.085938 251.0625 163.09375 251.015625 163.097656 C 236.992188 164.613281 217.753906 161.679688 202.738281 147.355469 C 202.035156 146.6875 201.484375 145.679688 201.207031 144.355469 C 200.910156 142.960938 200.90625 141.113281 201.171875 139.019531 C 201.734375 134.605469 203.496094 128.988281 205.683594 124.511719 C 207.242188 121.320312 209.054688 118.707031 210.757812 117.339844 C 214.742188 114.148438 223.824219 112.1875 233.1875 112.695312 C 242.550781 113.199219 252.097656 116.152344 257.058594 122.117188 C 264.195312 130.695312 269.683594 141.929688 270.9375 148.800781 C 271.15625 150.015625 270.351562 151.179688 269.132812 151.402344 C 267.917969 151.621094 266.753906 150.816406 266.53125 149.601562 C 265.375 143.246094 260.214844 132.90625 253.617188 124.976562 C 249.34375 119.839844 241.007812 117.59375 232.945312 117.15625 C 224.882812 116.726562 216.992188 118.082031 213.558594 120.828125 C 212.238281 121.890625 210.917969 123.992188 209.707031 126.476562 C 207.726562 130.519531 206.121094 135.59375 205.613281 139.582031 C 205.445312 140.875 205.394531 142.039062 205.511719 142.988281 C 205.574219 143.476562 205.59375 143.898438 205.828125 144.121094 C 219.730469 157.378906 237.550781 160.050781 250.53125 158.652344 C 250.578125 158.644531 250.625 158.640625 250.671875 158.636719 Z M 250.671875 158.636719 " fill-opacity="1" fill-rule="evenodd"/><g clip-path="url(#ea36155953)"><path fill="#dd6776" d="M 141.09375 67.75 C 132.066406 67.75 124.738281 75.074219 124.738281 84.097656 C 124.738281 88.71875 126.636719 93.496094 129.667969 97.125 C 132.605469 100.636719 136.621094 103.09375 141.097656 103.09375 C 145.570312 103.09375 149.59375 100.636719 152.527344 97.125 C 155.5625 93.496094 157.457031 88.71875 157.457031 84.097656 C 157.457031 75.074219 150.125 67.75 141.09375 67.75 Z M 141.09375 63.277344 C 152.597656 63.277344 161.933594 72.605469 161.933594 84.097656 C 161.933594 95.496094 152.507812 107.566406 141.09375 107.566406 C 129.6875 107.566406 120.261719 95.496094 120.261719 84.097656 C 120.261719 72.605469 129.597656 63.277344 141.09375 63.277344 Z M 141.09375 63.277344 " fill-opacity="1" fill-rule="evenodd"/></g><path fill="#95d3bf" d="M 123.699219 163.078125 C 122.472656 162.945312 121.585938 161.839844 121.71875 160.609375 C 121.855469 159.386719 122.964844 158.5 124.191406 158.636719 C 124.238281 158.640625 124.285156 158.644531 124.332031 158.652344 C 137.3125 160.050781 155.136719 157.378906 169.039062 144.121094 C 169.273438 143.898438 169.292969 143.476562 169.351562 142.988281 C 169.46875 142.039062 169.417969 140.875 169.253906 139.582031 C 168.746094 135.59375 167.136719 130.519531 165.160156 126.476562 C 163.945312 123.992188 162.632812 121.894531 161.304688 120.828125 C 157.875 118.082031 149.988281 116.726562 141.917969 117.160156 C 133.859375 117.59375 125.523438 119.839844 121.25 124.976562 C 114.652344 132.90625 109.488281 143.246094 108.332031 149.601562 C 108.113281 150.816406 106.945312 151.621094 105.730469 151.402344 C 104.515625 151.179688 103.707031 150.015625 103.929688 148.800781 C 105.183594 141.929688 110.667969 130.695312 117.808594 122.117188 C 122.769531 116.152344 132.316406 113.199219 141.679688 112.695312 C 151.039062 112.1875 160.125 114.148438 164.105469 117.339844 C 165.808594 118.707031 167.621094 121.320312 169.183594 124.511719 C 171.371094 128.988281 173.132812 134.605469 173.695312 139.019531 C 173.964844 141.113281 173.953125 142.960938 173.660156 144.359375 C 173.382812 145.679688 172.832031 146.6875 172.128906 147.355469 C 157.109375 161.679688 137.875 164.613281 123.855469 163.097656 C 123.800781 163.09375 123.75 163.085938 123.699219 163.078125 Z M 123.699219 163.078125 " fill-opacity="1" fill-rule="evenodd"/><path fill="#9983bd" d="M 325.660156 269.183594 C 326.128906 268.675781 326.242188 267.832031 326.292969 266.804688 C 326.335938 265.3125 326.128906 263.507812 325.730469 261.519531 C 324.496094 255.585938 321.488281 248.148438 318.035156 242.300781 C 315.855469 238.609375 313.546875 235.542969 311.367188 234.0625 C 305.839844 230.304688 293.734375 229.085938 281.5625 230.699219 C 269.394531 232.3125 257.0625 236.78125 251.199219 245.070312 C 243.28125 256.25 237.304688 270.125 235.324219 279.882812 C 234.5625 283.652344 234.34375 286.730469 235.042969 288.652344 C 235.359375 289.519531 236.300781 290.285156 237.597656 291.078125 C 240.171875 292.652344 244.085938 294.003906 248.90625 294.925781 C 268.382812 298.664062 302.269531 295.277344 325.660156 269.183594 Z M 328.996094 272.167969 C 304.328125 299.679688 268.597656 303.257812 248.066406 299.320312 C 242.597656 298.273438 238.183594 296.679688 235.257812 294.890625 C 232.882812 293.4375 231.417969 291.773438 230.835938 290.179688 C 229.945312 287.730469 229.964844 283.796875 230.941406 278.996094 C 233.015625 268.765625 239.246094 254.207031 247.542969 242.488281 C 254.03125 233.320312 267.511719 228.050781 280.972656 226.265625 C 294.433594 224.480469 307.777344 226.207031 313.886719 230.363281 C 316.464844 232.121094 319.3125 235.65625 321.882812 240.03125 C 325.59375 246.289062 328.785156 254.257812 330.113281 260.609375 C 330.71875 263.53125 330.90625 266.136719 330.652344 268.140625 C 330.4375 269.875 329.832031 271.230469 328.996094 272.167969 Z M 328.996094 272.167969 " fill-opacity="1" fill-rule="evenodd"/><path fill="#95d3bf" d="M 49.378906 269.183594 C 72.785156 295.277344 106.671875 298.664062 126.140625 294.925781 C 130.964844 294.003906 134.875 292.652344 137.453125 291.078125 C 138.746094 290.285156 139.691406 289.519531 140.007812 288.652344 C 140.707031 286.730469 140.488281 283.652344 139.726562 279.882812 C 137.746094 270.125 131.765625 256.25 123.855469 245.070312 C 117.988281 236.78125 105.660156 232.3125 93.488281 230.699219 C 81.316406 229.085938 69.207031 230.304688 63.683594 234.0625 C 61.503906 235.542969 59.191406 238.605469 57.015625 242.300781 C 53.570312 248.148438 50.558594 255.585938 49.328125 261.519531 C 48.914062 263.503906 48.703125 265.3125 48.773438 266.804688 C 48.816406 267.832031 48.925781 268.675781 49.378906 269.183594 Z M 46.046875 272.167969 C 45.203125 271.230469 44.621094 269.875 44.398438 268.140625 C 44.136719 266.136719 44.339844 263.53125 44.945312 260.609375 C 46.265625 254.257812 49.472656 246.292969 53.160156 240.03125 C 55.738281 235.660156 58.585938 232.121094 61.164062 230.367188 C 67.273438 226.207031 80.617188 224.480469 94.074219 226.265625 C 107.539062 228.050781 121.019531 233.320312 127.511719 242.488281 C 135.804688 254.210938 142.039062 268.765625 144.113281 278.996094 C 145.085938 283.796875 145.105469 287.730469 144.210938 290.179688 C 143.632812 291.773438 142.164062 293.4375 139.792969 294.890625 C 136.871094 296.679688 132.453125 298.273438 126.988281 299.320312 C 106.453125 303.257812 70.722656 299.679688 46.046875 272.167969 Z M 46.046875 272.167969 " fill-opacity="1" fill-rule="evenodd"/><path fill="#9983bd" d="M 221.328125 206.75 C 221.339844 207.015625 221.363281 208.015625 221.363281 208.285156 C 221.351562 216.789062 218.183594 224.566406 212.976562 230.503906 L 219.328125 236.847656 C 226.164062 229.265625 230.328125 219.234375 230.328125 208.238281 C 230.328125 196.4375 225.53125 185.746094 217.785156 178.003906 C 210.035156 170.261719 199.339844 165.476562 187.527344 165.476562 C 175.71875 165.476562 165.015625 170.261719 157.269531 178.003906 C 149.519531 185.746094 144.726562 196.4375 144.726562 208.238281 C 144.726562 219.234375 148.890625 229.265625 155.726562 236.847656 L 162.074219 230.503906 C 156.859375 224.554688 153.691406 216.761719 153.691406 208.238281 C 153.691406 198.910156 157.484375 190.457031 163.605469 184.335938 C 169.730469 178.21875 178.191406 174.429688 187.527344 174.429688 C 196.863281 174.429688 205.324219 178.21875 211.449219 184.335938 C 217.242188 190.128906 220.945312 198.011719 221.328125 206.75 Z M 216.882812 208.28125 C 216.882812 208.046875 216.863281 207.175781 216.855469 206.941406 C 216.527344 199.363281 213.308594 192.523438 208.28125 187.5 C 202.964844 182.191406 195.628906 178.902344 187.527344 178.902344 C 179.425781 178.902344 172.085938 182.191406 166.769531 187.5 C 161.457031 192.808594 158.167969 200.140625 158.167969 208.238281 C 158.167969 216.332031 161.457031 223.664062 166.769531 228.972656 C 167.644531 229.847656 167.644531 231.261719 166.769531 232.136719 L 157.269531 241.632812 C 156.394531 242.503906 154.976562 242.503906 154.101562 241.632812 C 145.542969 233.078125 140.25 221.273438 140.25 208.238281 C 140.25 195.203125 145.542969 183.394531 154.101562 174.84375 C 162.660156 166.292969 174.480469 161 187.527344 161 C 200.574219 161 212.390625 166.292969 220.949219 174.84375 C 229.503906 183.394531 234.804688 195.203125 234.804688 208.238281 C 234.804688 221.273438 229.503906 233.082031 220.949219 241.632812 C 220.074219 242.503906 218.660156 242.503906 217.785156 241.632812 L 208.28125 232.136719 C 207.40625 231.261719 207.40625 229.847656 208.28125 228.972656 C 213.585938 223.675781 216.871094 216.355469 216.882812 208.28125 Z M 216.882812 208.28125 " fill-opacity="1" fill-rule="evenodd"/><path fill="#8fb4e0" d="M 217.785156 174.84375 C 218.660156 173.96875 221.820312 177.132812 220.949219 178.003906 L 211.449219 187.5 C 210.574219 188.371094 207.40625 185.210938 208.28125 184.335938 Z M 217.785156 174.84375 " fill-opacity="1" fill-rule="evenodd"/><path fill="#dd6776" d="M 154.101562 178.003906 C 153.226562 177.132812 156.394531 173.96875 157.269531 174.84375 L 166.769531 184.335938 C 167.644531 185.210938 164.476562 188.371094 163.605469 187.5 Z M 154.101562 178.003906 " fill-opacity="1" fill-rule="evenodd"/><path fill="#95d3bf" d="M 197.796875 210.332031 C 198.121094 209.140625 199.347656 208.433594 200.542969 208.757812 C 201.734375 209.074219 202.441406 210.304688 202.121094 211.496094 C 200.390625 217.929688 194.507812 222.667969 187.527344 222.667969 C 179.183594 222.667969 172.414062 215.902344 172.414062 207.566406 C 172.414062 199.230469 179.183594 192.464844 187.527344 192.464844 C 194.507812 192.464844 200.390625 197.207031 202.121094 203.636719 C 202.441406 204.828125 201.734375 206.054688 200.542969 206.375 C 199.347656 206.695312 198.121094 205.992188 197.796875 204.796875 C 196.578125 200.273438 192.4375 196.9375 187.527344 196.9375 C 181.652344 196.9375 176.886719 201.699219 176.886719 207.566406 C 176.886719 213.429688 181.652344 218.195312 187.527344 218.195312 C 192.4375 218.195312 196.578125 214.859375 197.796875 210.332031 Z M 197.796875 210.332031 " fill-opacity="1" fill-rule="evenodd"/><path fill="#d26caa" d="M 208.160156 207.566406 C 199.125 206.320312 189.109375 205.015625 186.871094 205.015625 C 185.460938 205.015625 184.316406 206.160156 184.316406 207.566406 C 184.316406 208.972656 185.460938 210.117188 186.871094 210.117188 C 189.109375 210.117188 199.125 208.808594 208.160156 207.566406 Z M 224.4375 209.78125 C 224.4375 209.78125 191.214844 214.589844 186.871094 214.589844 C 182.992188 214.589844 179.839844 211.441406 179.839844 207.566406 C 179.839844 203.691406 182.992188 200.542969 186.871094 200.542969 C 191.214844 200.542969 224.4375 205.351562 224.4375 205.351562 C 225.535156 205.515625 226.351562 206.457031 226.351562 207.566406 C 226.351562 208.675781 225.535156 209.617188 224.4375 209.78125 Z M 224.4375 209.78125 " fill-opacity="1" fill-rule="evenodd"/><path fill="#fde266" d="M 187.527344 156.433594 C 159.28125 156.433594 136.347656 179.34375 136.347656 207.566406 C 136.347656 235.789062 159.28125 258.699219 187.527344 258.699219 C 215.769531 258.699219 238.707031 235.789062 238.707031 207.566406 C 238.707031 179.34375 215.769531 156.433594 187.527344 156.433594 Z M 187.527344 151.960938 C 218.242188 151.960938 243.183594 176.878906 243.183594 207.566406 C 243.183594 238.253906 218.246094 263.171875 187.527344 263.171875 C 156.808594 263.171875 131.871094 238.253906 131.871094 207.566406 C 131.871094 176.878906 156.808594 151.960938 187.527344 151.960938 Z M 187.527344 151.960938 " fill-opacity="1" fill-rule="evenodd"/><path fill="#9983bd" d="M 202.542969 242.285156 L 172.507812 242.285156 L 172.507812 245.007812 L 202.542969 245.007812 Z M 207.019531 240.050781 L 207.019531 247.242188 C 207.019531 248.476562 206.019531 249.480469 204.78125 249.480469 L 170.269531 249.480469 C 169.035156 249.480469 168.03125 248.476562 168.03125 247.242188 L 168.03125 240.050781 C 168.03125 238.816406 169.035156 237.8125 170.269531 237.8125 L 204.78125 237.8125 C 206.019531 237.8125 207.019531 238.816406 207.019531 240.050781 Z M 207.019531 240.050781 " fill-opacity="1" fill-rule="evenodd"/><path fill="#dd6776" d="M 101.121094 150.984375 C 87.148438 150.984375 75.808594 162.316406 75.808594 176.273438 C 75.808594 183.363281 78.707031 190.699219 83.363281 196.269531 C 87.917969 201.71875 94.175781 205.5 101.121094 205.5 C 108.066406 205.5 114.324219 201.71875 118.882812 196.269531 C 123.535156 190.699219 126.433594 183.363281 126.433594 176.273438 C 126.433594 162.316406 115.09375 150.984375 101.121094 150.984375 Z M 101.121094 146.511719 C 117.5625 146.511719 130.910156 159.847656 130.910156 176.273438 C 130.910156 192.613281 117.472656 209.972656 101.121094 209.972656 C 84.765625 209.972656 71.332031 192.613281 71.332031 176.273438 C 71.332031 159.847656 84.679688 146.511719 101.121094 146.511719 Z M 101.121094 146.511719 " fill-opacity="1" fill-rule="evenodd"/><path fill="#95d3bf" d="M 273.742188 150.984375 C 259.773438 150.984375 248.429688 162.316406 248.429688 176.273438 C 248.429688 183.363281 251.328125 190.699219 255.984375 196.269531 C 260.539062 201.71875 266.796875 205.5 273.742188 205.5 C 280.6875 205.5 286.949219 201.71875 291.503906 196.269531 C 296.160156 190.699219 299.054688 183.363281 299.054688 176.273438 C 299.054688 162.316406 287.714844 150.984375 273.742188 150.984375 Z M 273.742188 146.511719 C 290.1875 146.511719 303.53125 159.847656 303.53125 176.273438 C 303.53125 192.613281 290.097656 209.972656 273.742188 209.972656 C 257.390625 209.972656 243.953125 192.613281 243.953125 176.273438 C 243.953125 159.847656 257.300781 146.511719 273.742188 146.511719 Z M 273.742188 146.511719 " fill-opacity="1" fill-rule="evenodd"/></svg>