<svg xmlns="http://www.w3.org/2000/svg" xmlns:xlink="http://www.w3.org/1999/xlink" width="500" zoomAndPan="magnify" viewBox="0 0 375 374.999991" height="500" preserveAspectRatio="xMidYMid meet" version="1.0"><path fill="#7ed957" d="M 286.175781 100.699219 C 313.8125 149.066406 290.0625 222.480469 236.078125 241.050781 C 211.464844 249.6875 182.097656 248.390625 158.777344 236.300781 C 148.414062 231.117188 139.34375 222.910156 130.277344 215.570312 C 124.230469 210.386719 118.183594 204.34375 114.296875 197.433594 C 109.980469 190.089844 108.253906 181.453125 107.390625 172.816406 C 106.523438 165.90625 105.660156 158.996094 105.230469 152.089844 C 107.390625 116.246094 127.6875 80.402344 160.507812 64.855469 C 202.828125 44.125 262.421875 59.671875 286.175781 100.699219 Z M 286.175781 100.699219 " fill-opacity="1" fill-rule="nonzero"/><path fill="#c6c6c6" d="M 312.515625 83.855469 C 349.65625 146.472656 319.859375 242.34375 250.332031 268.6875 C 217.941406 280.78125 179.074219 280.347656 147.550781 264.800781 C 133.300781 257.890625 120.777344 247.09375 108.683594 236.730469 C 100.480469 229.820312 92.707031 222.046875 87.09375 212.546875 C 81.910156 203.910156 79.320312 193.976562 78.023438 184.046875 C 76.296875 173.25 75 162.019531 74.566406 151.222656 C 77.160156 104.152344 103.933594 57.511719 146.6875 36.785156 C 202.394531 10.441406 280.558594 30.308594 312.515625 83.855469 Z M 290.925781 208.660156 C 307.335938 182.316406 312.949219 149.496094 305.175781 119.269531 C 290.492188 63.992188 228.738281 35.488281 175.1875 48.011719 C 162.234375 51.035156 150.140625 57.082031 140.210938 64.855469 C 134.59375 68.742188 128.980469 73.492188 124.664062 78.242188 C 115.160156 88.175781 108.253906 99.835938 103.503906 112.789062 C 100.480469 120.132812 98.320312 127.90625 97.457031 136.109375 C 96.59375 139.996094 96.59375 143.453125 96.59375 146.90625 C 96.160156 154.679688 96.160156 162.453125 97.023438 170.226562 C 97.457031 174.113281 98.320312 178 99.183594 181.886719 C 99.617188 184.910156 100.480469 187.5 100.910156 190.523438 C 106.523438 209.957031 122.070312 222.480469 137.1875 234.570312 C 160.074219 253.140625 189.007812 260.484375 217.941406 256.597656 C 249.46875 251.84375 274.945312 235.003906 290.925781 208.660156 Z M 94.863281 237.164062 C 91.84375 241.914062 86.660156 247.09375 85.363281 248.390625 C 78.023438 257.027344 70.25 265.664062 62.910156 273.871094 C 49.953125 288.550781 36.566406 303.234375 24.472656 318.78125 C 19.292969 325.261719 12.382812 334.761719 16.269531 343.828125 C 19.722656 352.464844 30.953125 351.171875 37.429688 347.285156 C 45.632812 342.535156 52.113281 333.898438 58.589844 326.988281 C 65.929688 319.214844 72.839844 311.441406 80.183594 303.667969 C 93.570312 288.984375 107.390625 274.300781 120.777344 260.050781 C 120.777344 260.050781 120.34375 259.617188 120.34375 259.617188 C 112.140625 252.710938 103.070312 245.367188 94.863281 237.164062 Z M 94.863281 237.164062 " fill-opacity="1" fill-rule="nonzero"/><path fill="#603d4a" d="M 341.019531 113.222656 C 320.722656 43.695312 242.125 8.28125 174.324219 24.261719 C 160.507812 27.714844 147.984375 33.328125 136.753906 40.671875 C 125.957031 46.285156 116.457031 54.492188 108.683594 62.695312 C 95.730469 76.082031 87.09375 91.628906 80.613281 108.902344 C 76.726562 119.269531 74.136719 129.632812 73.273438 140.429688 C 72.839844 144.316406 72.839844 148.203125 72.839844 152.089844 C 71.976562 162.019531 72.410156 171.953125 73.703125 181.886719 C 74.566406 187.066406 75.433594 192.25 77.160156 197.433594 C 78.023438 200.886719 78.886719 204.773438 79.75 208.230469 C 82.773438 218.59375 88.386719 227.230469 95.296875 235.433594 C 94 236.300781 92.707031 237.59375 91.84375 239.320312 C 87.957031 243.640625 84.070312 247.957031 80.183594 252.710938 C 72.839844 261.347656 65.066406 269.984375 57.726562 278.621094 C 50.382812 287.257812 43.476562 295.894531 36.132812 304.964844 C 29.65625 312.734375 22.3125 320.941406 17.5625 330.011719 C 13.675781 337.785156 11.949219 346.851562 15.835938 355.058594 C 19.722656 362.398438 27.496094 366.285156 35.703125 366.285156 C 44.769531 365.855469 52.542969 361.101562 59.023438 355.488281 C 67.226562 347.714844 75 338.648438 82.773438 330.441406 C 100.910156 311.007812 118.617188 291.574219 136.753906 271.710938 C 165.257812 291.144531 200.667969 297.621094 235.214844 292.007812 C 273.652344 285.960938 305.609375 262.640625 325.472656 229.390625 C 344.90625 194.410156 351.816406 151.65625 341.019531 113.222656 Z M 87.957031 309.28125 C 80.613281 317.054688 73.703125 324.828125 66.363281 332.601562 C 59.886719 339.511719 53.40625 348.148438 45.203125 352.898438 C 38.726562 356.785156 27.496094 358.082031 24.042969 349.445312 C 20.15625 340.375 27.066406 331.304688 32.246094 324.394531 C 44.339844 308.847656 57.726562 294.167969 70.679688 279.484375 C 78.023438 270.847656 85.796875 262.210938 93.136719 254.003906 C 94.433594 252.710938 99.617188 247.527344 102.636719 242.777344 C 110.84375 250.980469 119.914062 258.324219 128.550781 265.234375 C 128.550781 265.234375 128.980469 265.664062 128.980469 265.664062 C 114.730469 279.914062 101.34375 294.597656 87.957031 309.28125 Z M 257.242188 273.871094 C 224.851562 285.960938 185.984375 285.53125 154.460938 269.984375 C 140.210938 263.074219 127.6875 252.277344 115.59375 241.914062 C 107.390625 235.003906 99.617188 227.230469 94 217.730469 C 88.820312 209.09375 86.226562 199.160156 84.933594 189.226562 C 83.207031 178.429688 81.910156 167.203125 81.476562 156.40625 C 84.070312 109.335938 110.84375 62.695312 153.597656 41.964844 C 208.875 15.625 287.039062 35.488281 318.996094 89.46875 C 356.132812 152.089844 326.335938 247.957031 257.242188 273.871094 Z M 182.097656 54.058594 C 169.144531 57.082031 157.050781 63.128906 147.117188 70.902344 C 141.503906 74.789062 135.890625 79.539062 131.574219 84.289062 C 122.070312 94.21875 115.160156 105.878906 110.410156 118.835938 C 107.390625 126.175781 105.230469 133.949219 104.367188 142.15625 C 103.933594 145.609375 103.933594 149.066406 103.933594 152.519531 C 103.503906 160.292969 103.503906 168.066406 104.367188 175.839844 C 104.796875 179.726562 105.660156 183.613281 106.523438 187.5 C 106.957031 190.523438 107.820312 193.113281 108.253906 196.136719 C 113.867188 215.570312 129.414062 228.09375 144.527344 240.1875 C 167.414062 258.753906 196.351562 266.097656 225.285156 262.210938 C 255.511719 257.890625 281.425781 241.050781 297.402344 214.707031 C 313.8125 188.363281 319.425781 155.542969 311.652344 125.3125 C 297.402344 70.035156 235.648438 41.101562 182.097656 54.058594 Z M 242.988281 246.664062 C 218.375 255.300781 189.007812 254.003906 165.6875 241.914062 C 155.324219 236.730469 146.253906 228.527344 137.1875 221.183594 C 131.140625 216.003906 125.09375 209.957031 121.207031 203.046875 C 116.890625 195.703125 115.160156 187.066406 114.296875 178.429688 C 113.433594 171.523438 112.570312 164.613281 112.140625 157.703125 C 114.296875 121.859375 134.59375 86.015625 167.414062 70.46875 C 209.738281 50.171875 268.902344 65.71875 292.652344 106.742188 C 320.722656 154.679688 296.972656 227.660156 242.988281 246.664062 Z M 120.34375 304.53125 C 119.046875 307.554688 116.457031 309.714844 114.296875 311.871094 C 112.140625 314.03125 109.546875 316.191406 107.390625 318.351562 C 105.230469 320.507812 102.636719 323.101562 100.480469 325.261719 C 99.183594 326.554688 98.320312 327.417969 97.023438 328.714844 C 96.59375 329.148438 95.730469 329.578125 95.296875 330.011719 C 94.863281 330.441406 94 330.441406 93.570312 330.875 C 93.136719 331.304688 92.707031 330.441406 93.136719 330.441406 C 93.570312 330.011719 93.570312 328.714844 93.570312 328.28125 C 94 327.417969 94.433594 326.988281 94.863281 326.125 C 95.730469 324.828125 97.023438 323.53125 97.886719 322.238281 C 100.046875 319.644531 102.207031 317.488281 104.367188 315.328125 C 106.523438 313.167969 109.117188 310.578125 111.277344 308.417969 C 113.867188 306.257812 116.027344 304.097656 119.480469 303.234375 C 120.34375 303.234375 120.777344 304.097656 120.34375 304.53125 Z M 86.660156 340.804688 C 83.207031 345.125 78.886719 349.011719 74.566406 353.332031 C 71.546875 356.785156 68.089844 359.808594 64.636719 362.832031 C 57.726562 368.445312 50.382812 373.195312 41.316406 372.761719 C 40.453125 372.761719 40.019531 371.46875 41.316406 371.035156 C 49.519531 369.308594 57.292969 364.558594 63.339844 358.511719 C 66.363281 355.488281 69.816406 352.464844 72.839844 349.011719 C 76.296875 345.125 79.75 340.804688 84.070312 337.785156 C 85.796875 336.054688 88.386719 338.648438 86.660156 340.804688 Z M 356.132812 199.160156 C 353.976562 208.230469 350.953125 216.867188 347.066406 225.070312 C 345.335938 229.390625 343.179688 233.277344 341.019531 237.164062 C 339.722656 239.320312 338.859375 241.050781 337.566406 243.207031 C 337.132812 244.070312 336.699219 244.503906 335.835938 245.367188 C 334.972656 245.800781 334.542969 245.800781 333.679688 246.230469 C 332.8125 246.664062 331.949219 245.800781 331.949219 244.9375 C 331.949219 244.070312 331.949219 243.207031 332.382812 241.914062 C 332.8125 241.050781 333.246094 240.1875 333.679688 239.753906 C 334.972656 237.59375 336.269531 235.867188 337.132812 233.707031 C 339.292969 229.820312 341.019531 226.367188 342.746094 222.480469 C 346.203125 214.707031 349.222656 206.070312 351.382812 197.863281 C 353.542969 189.226562 355.269531 180.589844 355.703125 171.953125 C 356.566406 163.316406 356.132812 154.246094 356.566406 145.609375 C 356.566406 144.746094 357.863281 144.316406 358.292969 145.179688 C 363.042969 162.882812 360.453125 181.886719 356.132812 199.160156 Z M 326.769531 259.617188 C 325.90625 261.347656 325.039062 263.074219 323.746094 264.367188 C 322.449219 265.664062 321.15625 267.390625 319.859375 268.6875 C 318.5625 269.984375 317.269531 271.277344 315.539062 272.574219 C 314.675781 273.007812 314.246094 273.4375 313.382812 274.300781 C 312.515625 274.734375 312.085938 275.597656 311.222656 276.027344 C 310.789062 276.460938 309.925781 275.597656 310.359375 275.164062 C 310.789062 274.300781 311.652344 273.4375 312.085938 272.574219 C 312.515625 271.710938 312.949219 270.847656 313.382812 270.414062 C 314.675781 268.6875 315.539062 267.390625 316.835938 266.097656 C 318.132812 264.800781 319.425781 263.074219 320.722656 262.210938 C 322.019531 260.914062 323.746094 260.050781 325.039062 258.753906 C 326.335938 257.460938 327.199219 258.753906 326.769531 259.617188 Z M 326.769531 259.617188 " fill-opacity="1" fill-rule="nonzero"/><path fill="#ffffff" d="M 176.054688 84.71875 C 167.414062 92.0625 157.484375 98.105469 150.140625 107.175781 C 146.253906 111.925781 143.664062 117.539062 141.503906 123.15625 C 140.210938 126.175781 139.34375 128.769531 138.480469 131.792969 C 137.617188 134.8125 136.753906 137.40625 134.59375 139.566406 C 133.730469 140.429688 132.003906 139.996094 131.574219 138.699219 C 130.707031 135.679688 131.574219 132.222656 132.867188 129.199219 C 133.730469 126.175781 135.027344 122.722656 136.324219 119.699219 C 138.914062 113.652344 141.503906 108.472656 145.390625 103.289062 C 152.734375 93.789062 163.527344 86.878906 174.757812 82.558594 C 176.054688 82.128906 176.917969 83.855469 176.054688 84.71875 Z M 137.1875 169.363281 C 136.753906 167.636719 136.753906 165.90625 136.324219 163.75 C 136.324219 162.019531 135.890625 159.863281 135.890625 158.132812 C 135.890625 157.269531 135.890625 156.40625 135.460938 155.109375 C 135.460938 154.679688 135.460938 154.246094 135.027344 153.382812 C 135.027344 152.953125 134.59375 152.519531 134.59375 152.089844 C 134.164062 151.222656 132.867188 151.222656 132.4375 151.65625 C 132.003906 152.089844 131.574219 152.519531 131.574219 152.953125 C 131.574219 153.382812 131.140625 153.816406 131.140625 154.679688 C 131.574219 155.976562 131.140625 156.839844 131.140625 157.703125 C 130.707031 159.429688 130.707031 161.589844 131.140625 163.75 C 131.140625 165.90625 131.574219 168.066406 131.574219 169.792969 C 132.003906 171.953125 132.003906 174.542969 133.730469 175.839844 C 134.59375 176.703125 136.753906 176.703125 137.1875 175.40625 C 137.617188 174.113281 137.617188 173.25 137.617188 171.953125 C 137.617188 171.089844 137.1875 170.226562 137.1875 169.363281 Z M 69.386719 287.6875 C 67.660156 288.121094 66.363281 289.417969 65.066406 291.144531 C 63.773438 292.4375 62.476562 293.734375 61.613281 295.460938 C 59.023438 298.484375 56.429688 301.507812 54.269531 304.53125 C 52.113281 307.554688 49.519531 310.578125 47.363281 313.601562 C 45.203125 316.621094 43.042969 320.078125 40.882812 323.53125 C 40.019531 324.828125 41.746094 326.125 43.042969 325.261719 C 45.632812 322.238281 48.226562 319.644531 50.382812 316.621094 C 52.976562 313.601562 55.136719 310.578125 57.726562 307.554688 C 60.316406 304.53125 62.476562 301.507812 65.066406 298.917969 C 66.363281 297.621094 67.660156 296.324219 68.523438 294.597656 C 69.816406 293.304688 71.113281 292.007812 71.113281 289.847656 C 71.546875 288.121094 70.25 287.257812 69.386719 287.6875 Z M 86.660156 273.007812 C 86.660156 273.007812 86.226562 273.007812 86.226562 273.007812 C 85.796875 273.007812 85.796875 273.007812 86.226562 273.007812 C 85.796875 273.007812 85.363281 273.007812 84.933594 273.4375 C 84.933594 273.4375 84.5 273.4375 84.5 273.871094 C 84.070312 274.300781 83.207031 274.734375 82.773438 274.734375 C 81.476562 275.597656 80.613281 276.460938 79.320312 277.324219 C 78.453125 278.1875 77.589844 279.050781 76.726562 279.914062 C 75.863281 280.78125 75 282.074219 74.136719 283.371094 C 73.273438 285.097656 75.433594 286.394531 76.726562 285.53125 C 77.589844 284.667969 78.453125 283.800781 79.75 282.9375 C 80.183594 282.507812 80.613281 282.074219 81.046875 281.644531 C 81.476562 281.644531 81.476562 281.210938 81.910156 281.210938 C 81.910156 281.210938 82.339844 281.210938 82.339844 280.78125 C 82.339844 280.78125 82.773438 280.347656 82.773438 280.78125 C 82.773438 280.78125 83.207031 280.78125 83.207031 280.347656 C 83.636719 280.347656 83.636719 279.914062 84.070312 279.914062 C 84.5 279.484375 84.933594 279.050781 85.796875 279.050781 C 86.226562 278.621094 86.660156 278.1875 87.523438 278.1875 C 87.523438 278.1875 87.957031 277.757812 87.957031 277.757812 C 88.386719 277.324219 88.386719 277.324219 88.820312 276.894531 C 88.820312 276.894531 89.25 276.460938 89.25 276.460938 C 90.113281 274.734375 88.386719 272.140625 86.660156 273.007812 Z M 128.980469 239.753906 C 127.253906 238.027344 125.09375 236.730469 123.367188 235.003906 C 119.914062 231.546875 116.457031 228.09375 113.433594 224.207031 C 107.390625 216.867188 102.207031 207.796875 97.886719 199.160156 C 97.457031 197.863281 94.863281 198.726562 95.296875 200.023438 C 98.320312 209.957031 103.503906 218.59375 109.980469 226.796875 C 113.003906 230.683594 116.457031 234.570312 120.34375 238.027344 C 122.070312 239.753906 124.230469 241.480469 125.957031 243.207031 C 127.6875 244.503906 129.84375 246.664062 132.4375 247.09375 C 133.730469 247.09375 134.59375 245.367188 134.164062 244.503906 C 133.300781 242.777344 130.707031 241.050781 128.980469 239.753906 Z M 153.164062 254.003906 C 152.734375 253.574219 152.300781 253.574219 151.871094 253.574219 C 151.003906 253.140625 150.574219 253.140625 149.710938 253.140625 C 149.277344 253.140625 148.847656 252.710938 148.847656 252.710938 C 148.847656 252.710938 147.984375 252.277344 148.847656 252.710938 C 148.847656 252.710938 148.414062 252.710938 148.414062 252.277344 C 147.550781 251.84375 147.117188 251.414062 146.253906 251.414062 C 145.390625 250.980469 144.097656 251.414062 143.664062 252.277344 C 143.230469 253.140625 143.664062 254.003906 144.527344 254.867188 C 145.824219 255.730469 147.550781 256.597656 148.847656 257.027344 C 149.710938 257.460938 150.140625 257.460938 151.003906 257.890625 C 151.871094 257.890625 153.164062 258.324219 154.027344 257.460938 C 154.460938 257.027344 154.890625 256.164062 154.460938 255.730469 C 154.027344 254.4375 153.597656 254.003906 153.164062 254.003906 Z M 153.164062 254.003906 " fill-opacity="1" fill-rule="nonzero"/></svg>