<svg xmlns="http://www.w3.org/2000/svg" xmlns:xlink="http://www.w3.org/1999/xlink" width="500" zoomAndPan="magnify" viewBox="0 0 375 374.999991" height="500" preserveAspectRatio="xMidYMid meet" version="1.0"><path fill="#7ed957" d="M 135.003906 213.214844 L 12.417969 308.214844 C 1.675781 316.539062 0.0898438 332.164062 8.945312 342.476562 L 14.4375 348.875 C 23.292969 359.1875 38.972656 359.992188 48.828125 350.632812 L 161.308594 243.859375 C 156.1875 239.539062 151.375 234.78125 146.921875 229.59375 C 142.472656 224.410156 138.5 218.929688 135.003906 213.214844 " fill-opacity="1" fill-rule="nonzero"/><path fill="#7ed957" d="M 310.511719 228.617188 C 266.171875 266.679688 199.371094 261.585938 161.308594 217.246094 C 123.25 172.90625 128.339844 106.105469 172.679688 68.042969 C 217.019531 29.984375 283.820312 35.070312 321.882812 79.414062 C 359.945312 123.753906 354.851562 190.554688 310.511719 228.617188 Z M 332.039062 70.699219 C 289.164062 20.746094 213.914062 15.011719 163.960938 57.890625 C 114.015625 100.761719 108.28125 176.011719 151.152344 225.964844 C 194.03125 275.910156 269.277344 281.648438 319.230469 238.769531 C 369.179688 195.894531 374.914062 120.644531 332.039062 70.699219 " fill-opacity="1" fill-rule="nonzero"/><path fill="#7ed957" d="M 310.574219 89.121094 C 294.769531 70.703125 272.734375 59.542969 248.539062 57.703125 C 224.335938 55.855469 200.867188 63.546875 182.449219 79.355469 C 178.183594 83.019531 177.691406 89.457031 181.359375 93.726562 C 182.832031 95.445312 184.753906 96.550781 186.800781 97.019531 C 189.847656 97.71875 193.175781 97.011719 195.730469 94.824219 C 210.011719 82.558594 228.214844 76.59375 246.988281 78.023438 C 265.757812 79.460938 282.847656 88.109375 295.109375 102.394531 C 298.773438 106.667969 305.207031 107.15625 309.480469 103.488281 C 313.75 99.824219 314.242188 93.390625 310.574219 89.121094 " fill-opacity="1" fill-rule="nonzero"/></svg>