<svg xmlns="http://www.w3.org/2000/svg" xmlns:xlink="http://www.w3.org/1999/xlink" width="500" zoomAndPan="magnify" viewBox="0 0 375 374.999991" height="500" preserveAspectRatio="xMidYMid meet" version="1.0"><defs><clipPath id="0b944f2991"><path d="M 68.816406 73.613281 L 272 73.613281 L 272 333.617188 L 68.816406 333.617188 Z M 68.816406 73.613281 " clip-rule="nonzero"/></clipPath><clipPath id="e967024c6e"><path d="M 119 37.5 L 222 37.5 L 222 94 L 119 94 Z M 119 37.5 " clip-rule="nonzero"/></clipPath></defs><g clip-path="url(#0b944f2991)"><path fill="#9012ff" d="M 251.671875 333.617188 L 88.96875 333.617188 C 77.839844 333.617188 68.816406 324.597656 68.816406 313.472656 L 68.816406 94.046875 C 68.816406 82.917969 77.839844 73.894531 88.96875 73.894531 L 251.671875 73.894531 C 262.796875 73.894531 271.820312 82.917969 271.820312 94.046875 L 271.820312 313.472656 C 271.820312 324.597656 262.796875 333.617188 251.671875 333.617188 " fill-opacity="1" fill-rule="nonzero"/></g><path fill="#ffffff" d="M 88.96875 327.179688 C 81.410156 327.179688 75.265625 321.03125 75.265625 313.472656 L 75.265625 94.039062 C 75.265625 86.488281 81.410156 80.34375 88.96875 80.34375 L 251.667969 80.34375 C 259.226562 80.34375 265.371094 86.488281 265.371094 94.039062 L 265.371094 313.472656 C 265.371094 321.03125 259.226562 327.179688 251.667969 327.179688 L 88.96875 327.179688 " fill-opacity="1" fill-rule="nonzero"/><g clip-path="url(#e967024c6e)"><path fill="#9012ff" d="M 149.953125 52.863281 C 149.953125 55.519531 152.101562 57.664062 154.757812 57.664062 L 185.878906 57.664062 C 188.535156 57.664062 190.6875 55.519531 190.6875 52.863281 C 190.6875 48.085938 186.816406 44.214844 182.039062 44.214844 L 158.597656 44.214844 C 153.828125 44.214844 149.953125 48.085938 149.953125 52.863281 Z M 221.449219 81.234375 C 221.449219 87.898438 216.046875 93.296875 209.386719 93.296875 L 131.257812 93.296875 C 124.59375 93.296875 119.1875 87.898438 119.1875 81.234375 C 119.1875 69.246094 128.910156 59.523438 140.898438 59.523438 L 141.105469 59.523438 C 141.097656 59.417969 141.042969 59.328125 141.042969 59.21875 C 141.042969 47.226562 150.761719 37.507812 162.753906 37.507812 L 177.890625 37.507812 C 189.882812 37.507812 199.59375 47.226562 199.59375 59.21875 C 199.59375 59.328125 199.539062 59.417969 199.539062 59.523438 L 199.742188 59.523438 C 211.734375 59.523438 221.449219 69.246094 221.449219 81.234375 " fill-opacity="1" fill-rule="nonzero"/></g><path fill="#cf80ff" d="M 134.429688 291.171875 L 134.429688 274.5625 C 134.429688 269.875 130.628906 266.074219 125.941406 266.074219 L 109.332031 266.074219 C 104.648438 266.074219 100.84375 269.875 100.84375 274.5625 L 100.84375 291.171875 C 100.84375 295.859375 104.648438 299.660156 109.332031 299.660156 L 125.941406 299.660156 C 130.628906 299.660156 134.429688 295.859375 134.429688 291.171875 Z M 134.429688 242.285156 L 134.429688 225.679688 C 134.429688 220.992188 130.628906 217.191406 125.941406 217.191406 L 109.332031 217.191406 C 104.648438 217.191406 100.84375 220.992188 100.84375 225.679688 L 100.84375 242.285156 C 100.84375 246.972656 104.648438 250.777344 109.332031 250.777344 L 125.941406 250.777344 C 130.628906 250.777344 134.429688 246.972656 134.429688 242.285156 Z M 134.429688 193.402344 L 134.429688 176.792969 C 134.429688 172.105469 130.628906 168.304688 125.941406 168.304688 L 109.332031 168.304688 C 104.648438 168.304688 100.84375 172.105469 100.84375 176.792969 L 100.84375 193.402344 C 100.84375 198.089844 104.648438 201.890625 109.332031 201.890625 L 125.941406 201.890625 C 130.628906 201.890625 134.429688 198.089844 134.429688 193.402344 Z M 125.941406 153.003906 L 109.332031 153.003906 C 104.648438 153.003906 100.84375 149.203125 100.84375 144.515625 L 100.84375 127.910156 C 100.84375 123.222656 104.648438 119.417969 109.332031 119.417969 L 125.941406 119.417969 C 130.628906 119.417969 134.429688 123.222656 134.429688 127.910156 L 134.429688 144.515625 C 134.429688 149.203125 130.628906 153.003906 125.941406 153.003906 " fill-opacity="1" fill-rule="nonzero"/><path fill="#9012ff" d="M 125.375 292.089844 L 152.902344 265.964844 C 154.703125 264.265625 154.777344 261.433594 153.070312 259.636719 C 151.371094 257.835938 148.53125 257.769531 146.746094 259.46875 L 122.324219 282.644531 L 114.035156 274.617188 C 112.257812 272.898438 109.421875 272.941406 107.707031 274.71875 C 105.980469 276.492188 106.03125 279.328125 107.808594 281.046875 L 119.1875 292.0625 C 120.054688 292.902344 121.183594 293.320312 122.300781 293.320312 C 123.414062 293.320312 124.523438 292.910156 125.375 292.089844 Z M 125.375 243.671875 L 152.902344 217.546875 C 154.703125 215.84375 154.777344 213.007812 153.070312 211.21875 C 151.371094 209.410156 148.53125 209.355469 146.746094 211.046875 L 122.324219 234.21875 L 114.035156 226.191406 C 112.257812 224.480469 109.410156 224.523438 107.707031 226.300781 C 105.980469 228.078125 106.03125 230.910156 107.808594 232.628906 L 119.1875 243.640625 C 120.054688 244.480469 121.183594 244.894531 122.300781 244.894531 C 123.414062 244.894531 124.523438 244.484375 125.375 243.671875 Z M 125.375 195.246094 L 152.902344 169.132812 C 154.703125 167.425781 154.777344 164.59375 153.070312 162.796875 C 151.371094 161 148.53125 160.929688 146.746094 162.628906 L 122.324219 185.796875 L 114.035156 177.773438 C 112.257812 176.0625 109.410156 176.101562 107.707031 177.878906 C 105.980469 179.660156 106.03125 182.496094 107.808594 184.210938 L 119.1875 195.222656 C 120.054688 196.054688 121.183594 196.480469 122.300781 196.480469 C 123.414062 196.480469 124.523438 196.070312 125.375 195.246094 Z M 122.300781 148.0625 C 121.183594 148.0625 120.054688 147.640625 119.1875 146.796875 L 107.808594 135.796875 C 106.03125 134.078125 105.980469 131.242188 107.707031 129.460938 C 109.410156 127.679688 112.257812 127.632812 114.035156 129.359375 L 122.324219 137.378906 L 146.746094 114.214844 C 148.53125 112.515625 151.371094 112.578125 153.070312 114.378906 C 154.777344 116.167969 154.703125 119.003906 152.902344 120.707031 L 125.375 146.832031 C 124.523438 147.652344 123.414062 148.0625 122.300781 148.0625 " fill-opacity="1" fill-rule="nonzero"/><path fill="#ffffff" d="M 293 186.308594 L 286.082031 193.226562 L 279.488281 186.644531 L 195.972656 270.324219 C 198.113281 272.960938 199.921875 275.597656 201.570312 277.90625 C 194.324219 279.714844 187.074219 281.695312 179.828125 283.503906 L 167.636719 271.3125 C 169.445312 264.066406 171.261719 256.816406 173.074219 249.402344 C 175.378906 251.050781 178.011719 252.867188 180.816406 255.007812 L 264.335938 171.484375 L 257.746094 164.894531 L 264.664062 157.976562 L 293 186.308594 " fill-opacity="1" fill-rule="nonzero"/><path fill="#262626" d="M 179.75 283.484375 C 174.359375 284.855469 168.957031 286.226562 163.566406 287.601562 C 164.914062 282.179688 166.253906 276.757812 167.597656 271.332031 L 179.75 283.484375 " fill-opacity="1" fill-rule="nonzero"/><path fill="#ffffff" d="M 293 186.308594 L 292.832031 186.476562 L 264.496094 157.976562 L 264.664062 157.976562 L 293 186.308594 " fill-opacity="1" fill-rule="nonzero"/><path fill="#cf80ff" d="M 302.226562 163.085938 L 287.886719 148.753906 C 284.105469 144.796875 277.675781 144.796875 273.890625 148.753906 L 264.664062 157.976562 L 264.496094 157.976562 L 292.832031 186.476562 L 302.226562 177.082031 C 306.175781 173.300781 306.175781 166.875 302.226562 163.085938 Z M 279.320312 186.476562 L 194.652344 271.148438 C 193.335938 274.277344 191.851562 277.410156 190.367188 280.699219 C 194.15625 279.714844 197.78125 278.890625 201.570312 277.90625 C 229.738281 249.730469 258.074219 221.394531 286.246094 193.394531 Z M 257.746094 164.894531 C 229.578125 192.902344 201.242188 221.234375 173.074219 249.402344 C 172.082031 253.191406 171.261719 256.816406 170.433594 260.4375 C 173.570312 259.125 176.699219 257.644531 179.828125 256.320312 L 264.496094 171.652344 Z M 275.371094 182.519531 L 190.703125 267.03125 C 187.734375 267.691406 184.929688 268.351562 182.136719 269.003906 C 182.628906 266.210938 183.285156 263.242188 183.777344 260.277344 C 212.113281 232.105469 240.285156 203.9375 268.453125 175.601562 L 275.371094 182.519531 " fill-opacity="1" fill-rule="nonzero"/></svg>